<?xml version="1.0" standalone="no"?>
<!DOCTYPE svg PUBLIC "-//W3C//DTD SVG 20010904//EN"
 "http://www.w3.org/TR/2001/REC-SVG-20010904/DTD/svg10.dtd">
<svg version="1.0" xmlns="http://www.w3.org/2000/svg"
 width="500.000000pt" height="500.000000pt" viewBox="0 0 500.000000 500.000000"
 preserveAspectRatio="xMidYMid meet">
<metadata>
Created by potrace 1.14, written by Peter Selinger 2001-2017
</metadata>
<g transform="translate(0.000000,500.000000) scale(0.100000,-0.100000)"
fill="#000000" stroke="none">
<path d="M1775 4764 c-111 -27 -154 -39 -175 -50 -14 -7 -54 -26 -90 -42 -136
-63 -222 -149 -277 -277 -77 -178 -83 -224 -44 -345 31 -94 70 -151 214 -314
146 -165 205 -207 365 -261 86 -29 110 -32 222 -34 141 -2 351 25 638 82 40 8
74 11 77 8 2 -4 -25 -14 -60 -21 -36 -8 -65 -17 -65 -21 0 -4 -6 -7 -12 -6
-31 1 -49 -4 -44 -12 3 -4 -5 -7 -19 -6 -13 2 -52 -11 -87 -29 -94 -47 -229
-139 -219 -149 5 -5 19 -2 32 6 13 8 37 18 52 21 15 4 25 11 22 16 -3 5 0 7 8
4 8 -3 41 8 73 24 33 16 80 37 106 47 26 10 45 21 43 25 -3 5 5 6 17 3 19 -4
20 -3 8 6 -8 6 -10 11 -4 11 5 0 14 -4 20 -9 5 -5 41 3 89 21 88 34 96 39 77
45 -6 3 -10 9 -7 13 3 5 12 7 19 4 8 -3 17 -1 20 5 4 6 22 5 53 -4 48 -14 115
-71 136 -114 7 -14 18 -27 26 -29 11 -4 13 10 9 73 l-5 77 36 -7 c48 -9 52
-12 45 -41 -4 -14 -2 -24 5 -24 6 0 11 7 11 15 0 23 16 18 39 -11 19 -25 39
-111 32 -144 -2 -8 -9 -19 -17 -23 -9 -5 -11 -17 -8 -37 6 -26 4 -28 -16 -23
-21 6 -21 5 -7 -28 11 -28 11 -39 1 -64 -11 -27 -13 -28 -20 -10 -22 62 -70
174 -87 203 -32 55 -30 28 2 -37 57 -111 129 -321 111 -321 -5 0 -2 -12 6 -27
7 -16 13 -37 13 -48 -1 -17 -2 -16 -8 4 -4 14 -12 26 -19 29 -7 2 -10 -2 -6
-12 3 -9 1 -16 -6 -16 -6 0 -8 -6 -4 -12 5 -10 4 -10 -5 -2 -10 9 -10 17 -1
33 6 12 8 26 5 31 -3 5 0 12 6 16 7 4 -5 12 -27 20 -48 17 -47 17 -32 0 7 -8
16 -12 21 -9 13 8 7 -14 -8 -27 -14 -12 -20 -7 -16 14 3 16 -23 26 -54 20 -39
-7 -137 -51 -147 -67 -4 -7 -8 -22 -8 -33 0 -13 -8 -24 -18 -26 -11 -3 -19 0
-19 8 0 8 5 14 11 14 15 0 60 146 59 191 0 20 -6 45 -12 55 -9 15 -10 10 -5
-24 11 -73 -20 -164 -78 -227 -44 -49 -73 -67 -183 -116 -30 -13 -114 -20
-165 -14 -36 5 -55 16 -95 53 -28 26 -58 59 -68 72 -14 20 -17 21 -11 5 13
-39 9 -48 -31 -61 -61 -21 -144 -66 -167 -91 -30 -32 -16 -29 39 10 49 34 72
45 133 68 19 7 38 17 41 21 3 5 24 -10 48 -33 61 -60 128 -75 239 -54 48 9
161 61 188 85 l20 20 -22 -67 c-15 -49 -18 -70 -10 -75 8 -6 7 -10 -2 -16 -15
-10 -14 -90 0 -109 6 -7 6 -18 2 -24 -4 -7 -3 -9 4 -5 6 3 16 -3 22 -15 8 -15
9 -19 1 -15 -19 12 -12 1 23 -38 18 -21 36 -34 40 -28 3 5 -1 12 -8 15 -26 10
-37 42 -22 63 13 17 14 16 10 -11 -4 -25 -3 -27 5 -10 9 18 10 18 10 -6 1 -34
24 -53 56 -47 17 4 25 1 25 -8 0 -8 7 -14 15 -14 8 0 15 -4 15 -9 0 -5 -22 -1
-50 9 -60 22 -67 7 -10 -19 36 -16 106 -18 82 -2 -11 8 -22 62 -11 55 5 -3 9
-15 9 -27 0 -20 0 -20 15 -1 14 19 14 19 15 -1 1 -14 3 -16 7 -5 3 8 11 21 16
29 17 20 17 40 1 34 -10 -4 -12 0 -8 11 3 9 9 14 14 11 4 -2 13 7 20 20 7 14
17 25 21 25 4 0 5 9 2 19 -4 17 -1 18 29 12 22 -5 34 -13 35 -26 3 -19 3 -19
-6 0 -8 17 -10 14 -10 -17 -1 -20 -4 -39 -9 -42 -4 -2 -6 12 -6 32 2 32 0 34
-10 20 -7 -10 -16 -15 -19 -11 -4 3 -7 -5 -7 -18 0 -19 -2 -21 -10 -9 -7 10
-8 0 -5 -35 3 -34 2 -45 -5 -35 -8 12 -10 11 -10 -7 0 -13 -4 -23 -8 -23 -5 0
-17 -7 -28 -16 -18 -14 -18 -15 4 -4 13 7 25 10 28 8 5 -6 -172 -161 -244
-213 -61 -45 -81 -65 -63 -65 5 0 12 4 15 9 4 5 29 26 57 46 28 20 48 32 44
26 -10 -17 11 -13 25 4 7 8 9 15 4 15 -8 0 7 15 100 95 103 88 189 223 217
340 14 55 3 201 -24 320 -17 76 -21 108 -13 133 7 25 13 31 25 26 41 -17 51
-16 51 3 0 11 -9 28 -20 38 -11 10 -20 13 -20 7 0 -6 5 -14 10 -17 6 -3 10
-11 10 -17 0 -6 -9 -3 -19 6 -11 10 -17 25 -14 37 6 20 28 26 38 9 9 -15 42
-12 48 3 3 8 -5 27 -19 43 -26 32 -33 21 -8 -14 9 -14 11 -22 4 -22 -27 0 -36
27 -36 105 1 59 -4 89 -18 114 -11 21 -14 37 -8 43 14 14 2 48 -17 48 -9 0
-22 -5 -28 -11 -8 -8 -17 -8 -31 0 -11 6 -34 11 -50 11 -29 0 -31 3 -60 98
-68 218 -102 331 -126 412 -29 102 -63 178 -128 285 -62 104 -130 180 -113
126 4 -15 -2 -22 -32 -34 -34 -14 -41 -13 -66 1 -44 26 -59 56 -52 109 6 54
13 66 22 35 3 -12 10 -19 16 -15 6 3 7 1 3 -6 -4 -6 -12 -9 -17 -6 -17 11 -6
-45 15 -72 1 -1 19 -9 39 -18 35 -15 37 -14 52 9 16 24 15 26 -30 67 -65 60
-144 118 -185 135 -19 8 -48 22 -65 31 -89 46 -177 64 -340 68 -88 2 -169 2
-180 -1z m79 -58 c8 -29 6 -43 -6 -64 -44 -73 -110 -64 -153 21 -18 37 -22 53
-13 58 7 5 17 -3 26 -19 33 -64 70 -79 103 -41 12 14 16 31 13 55 -6 49 18 40
30 -10z m36 27 c0 -26 37 -83 54 -83 25 0 46 30 46 66 0 23 5 34 14 34 31 0
30 -76 -1 -112 -40 -46 -118 -21 -129 42 -3 19 -8 43 -11 53 -3 11 1 17 11 17
9 0 16 -8 16 -17z m170 -12 c0 -40 28 -71 73 -78 44 -7 77 16 77 54 0 14 4 21
10 18 32 -20 -15 -98 -67 -111 -31 -8 -78 12 -98 42 -17 26 -21 104 -5 104 6
0 10 -13 10 -29z m-402 -51 c5 -49 -5 -75 -32 -88 -34 -15 -67 -5 -98 31 -36
40 -25 56 12 17 33 -35 60 -38 85 -10 13 14 16 29 12 55 -4 26 -2 35 6 32 7
-2 13 -18 15 -37z m619 -17 c-11 -99 68 -127 114 -42 8 16 13 18 25 8 20 -16
18 -34 -9 -64 -14 -17 -36 -28 -63 -32 -36 -5 -43 -2 -67 27 -27 31 -34 70
-21 118 10 36 25 25 21 -15z m-183 -57 c54 -32 55 -32 100 -1 20 13 36 20 36
14 0 -26 33 -76 60 -93 34 -19 77 -15 119 13 23 15 25 15 19 -1 -4 -9 -3 -32
3 -51 13 -48 84 -87 129 -70 l30 11 -6 -39 c-6 -35 -3 -44 22 -70 15 -16 34
-29 41 -29 9 0 13 -12 11 -42 -2 -34 -11 -50 -42 -81 -21 -21 -35 -41 -32 -44
4 -4 23 10 44 30 38 37 38 37 57 17 10 -11 24 -20 30 -20 21 0 4 -53 -28 -87
-17 -18 -27 -36 -23 -40 4 -5 18 4 31 19 l23 27 16 -23 c14 -22 13 -25 -4 -41
-11 -10 -20 -25 -20 -34 1 -12 5 -11 20 7 10 12 20 27 22 32 2 5 13 7 25 4 21
-6 21 -7 5 -42 -20 -43 -40 -67 -49 -58 -4 3 3 19 15 36 12 16 18 31 14 34 -4
2 -19 -12 -32 -32 l-25 -36 -5 35 c-4 20 -1 42 7 54 19 29 15 43 -5 19 -14
-16 -26 -20 -50 -16 -29 4 -32 8 -32 38 0 51 -37 80 -94 74 -14 -1 -17 3 -13
15 8 20 -14 75 -37 94 -9 8 -30 14 -46 13 -23 0 -31 4 -36 23 -9 35 -39 57
-78 57 -28 0 -36 4 -36 18 0 10 -14 31 -30 47 -31 28 -31 29 -24 103 4 54 3
72 -5 65 -6 -6 -12 -38 -13 -71 l-3 -60 -47 -1 c-33 -1 -48 3 -48 11 0 7 -9
21 -21 32 -16 15 -20 28 -18 71 2 29 0 56 -4 60 -8 7 -9 -1 -11 -62 l-1 -40
-50 0 -50 0 -5 54 c-6 53 -5 54 25 67 18 7 38 20 45 29 12 14 15 14 22 2 4 -8
28 -27 52 -41z m-335 -16 c4 0 6 -13 3 -30 -5 -36 -22 -40 -22 -5 0 14 -4 25
-9 25 -5 0 -8 -12 -6 -28 2 -16 -4 -38 -15 -52 -15 -20 -20 -22 -34 -11 -9 7
-16 24 -16 37 0 12 -4 26 -10 29 -6 4 -10 -5 -10 -19 0 -33 -16 -34 -24 -1 -4
14 -11 25 -16 25 -6 0 -8 -11 -4 -25 5 -19 2 -25 -10 -25 -9 0 -16 8 -16 20 0
11 -5 20 -11 20 -7 0 -8 -11 -4 -29 3 -17 2 -32 -4 -36 -6 -3 -11 0 -12 7 -2
37 -11 74 -20 83 -7 7 -8 -8 -4 -47 5 -40 4 -58 -4 -58 -6 0 -11 11 -11 24 0
14 -5 28 -11 32 -9 5 -10 -1 -5 -20 5 -21 3 -26 -13 -26 -31 0 -30 23 1 52 17
15 28 36 28 52 0 31 10 33 33 6 24 -29 99 -28 127 2 11 12 20 30 20 41 0 17 5
15 35 -12 20 -17 39 -31 44 -31z m143 38 c29 -20 33 -28 30 -61 -4 -48 -25
-44 -33 6 -9 55 -22 59 -16 5 5 -38 3 -46 -9 -41 -7 3 -12 9 -9 13 3 5 1 19
-4 32 -9 21 -10 19 -10 -13 -1 -23 -7 -39 -16 -43 -23 -9 -19 60 6 95 11 16
22 29 24 29 2 0 19 -10 37 -22z m-417 -24 c-9 -51 -25 -72 -57 -79 -37 -8 -90
4 -85 18 3 7 10 11 16 9 82 -18 105 -7 105 54 0 23 5 34 14 34 11 0 13 -8 7
-36z m322 -49 c0 -24 -4 -35 -13 -35 -8 0 -14 3 -15 8 0 4 -2 16 -4 27 -3 17
9 34 25 35 3 0 6 -16 7 -35z m106 -50 c36 -15 54 -32 43 -42 -3 -3 -13 2 -22
11 -10 11 -31 17 -53 16 -53 -3 -58 -1 -37 15 24 18 25 18 69 0z m-574 -26
c13 -39 13 -39 2 -39 -5 0 -13 9 -16 20 -8 24 -27 27 -23 3 2 -10 -4 -19 -14
-21 -21 -4 -15 21 10 51 21 24 28 22 41 -14z m37 23 c16 -10 26 -46 18 -66 -5
-13 -11 -8 -25 24 -11 23 -19 44 -19 46 0 6 14 4 26 -4z m440 -14 c4 -6 -5 -8
-24 -3 -17 3 -41 1 -54 -5 l-23 -11 22 19 c22 20 67 20 79 0z m-386 -3 c0 -8
-4 -15 -9 -15 -5 0 -11 7 -15 15 -3 9 0 15 9 15 8 0 15 -7 15 -15z m240 -11
c17 -16 3 -18 -33 -5 -17 7 -32 5 -51 -5 -20 -10 -26 -10 -23 -1 11 35 75 41
107 11z m387 -7 c6 2 18 -6 27 -19 24 -34 19 -42 -10 -19 -15 12 -41 21 -60
21 -19 0 -34 4 -34 9 0 13 31 19 50 11 8 -4 20 -5 27 -3z m-537 -18 c11 -8 2
-9 -33 -4 -33 4 -53 2 -65 -7 -15 -12 -16 -11 -3 5 15 19 77 23 101 6z m405
-4 c28 -2 70 -12 95 -22 l45 -20 -60 -27 c-33 -15 -89 -47 -125 -70 -99 -65
-94 -66 -119 22 -12 43 -23 85 -24 95 -1 19 -12 22 -22 6 -11 -17 -173 -119
-190 -119 -16 0 -32 32 -42 84 -6 28 -5 28 30 24 21 -2 37 -1 37 2 0 3 39 11
88 18 48 7 98 14 112 16 14 2 48 2 75 -1 28 -3 73 -7 100 -8z m701 -41 c-9
-43 6 -64 45 -64 33 0 44 -13 25 -29 -20 -16 -63 -4 -85 25 -15 19 -17 31 -11
54 17 59 36 69 26 14z m-1271 10 c26 -10 -3 -24 -37 -17 -17 3 -37 -1 -54 -11
-25 -17 -25 -17 -15 2 6 11 16 23 23 25 19 8 64 8 83 1z m125 -80 c0 -25 -18
-15 -29 16 -5 17 -12 30 -16 30 -3 0 -24 -9 -48 -20 -23 -10 -62 -22 -87 -25
l-45 -5 29 16 c16 9 34 17 40 18 6 1 22 8 34 15 13 7 26 10 29 8 2 -3 19 1 36
8 31 13 32 12 44 -17 7 -17 13 -37 13 -44z m256 35 c39 -118 40 -127 11 -116
-8 3 -21 28 -28 56 -7 28 -17 51 -21 51 -5 0 -25 -16 -45 -35 -36 -35 -57 -42
-81 -27 -8 6 9 22 53 51 36 24 68 48 71 53 11 17 29 2 40 -33z m475 21 c34 -9
70 -52 56 -66 -9 -9 -37 15 -37 31 0 15 -22 25 -54 25 -12 0 -31 7 -42 16 -18
15 -18 15 11 9 17 -3 46 -10 66 -15z m-41 -30 c71 -36 184 -120 173 -130 -4
-5 -28 -15 -53 -23 -137 -47 -214 -78 -222 -89 -9 -13 -9 193 0 252 5 35 12
35 102 -10z m-120 -55 c-3 -41 -5 -100 -4 -130 0 -30 -2 -55 -6 -55 -3 0 -16
7 -28 16 -21 14 -23 23 -21 83 1 44 -2 65 -9 64 -6 -2 -34 -17 -62 -34 -39
-24 -56 -29 -80 -24 -16 4 -30 10 -30 14 0 14 211 140 235 141 6 0 8 -28 5
-75z m293 -4 c14 -6 29 -23 35 -40 14 -39 2 -40 -20 -1 -10 18 -25 30 -37 30
-11 0 -23 5 -26 10 -8 13 16 13 48 1z m369 -23 c-30 -30 -2 -85 37 -75 28 7
35 -20 8 -29 -45 -16 -87 12 -87 58 0 27 36 76 48 64 3 -4 0 -12 -6 -18z
m-1499 -29 c-23 -8 -23 -8 -16 20 6 23 7 23 20 5 12 -16 11 -19 -4 -25z m432
15 c39 -9 88 -21 109 -26 25 -6 35 -13 27 -17 -8 -5 -1 -12 21 -21 81 -30 132
-53 174 -76 24 -14 50 -22 56 -18 7 4 8 3 4 -4 -4 -7 -3 -12 1 -12 5 0 18 -7
29 -15 17 -13 -42 12 -223 96 -35 16 -115 47 -180 69 -64 22 -119 43 -122 47
-4 3 3 3 14 0 11 -3 52 -13 90 -23z m-286 -14 c30 -17 59 -30 65 -30 19 0 176
-143 204 -187 15 -23 39 -50 52 -61 14 -11 41 -42 60 -68 19 -27 26 -42 16
-34 -10 8 -25 15 -33 16 -8 2 -22 9 -31 16 -35 29 -259 224 -292 254 -19 18
-46 42 -60 53 -14 12 2 6 37 -13 69 -38 99 -64 251 -210 56 -55 102 -95 102
-90 0 12 -163 172 -245 241 -33 28 -75 58 -94 68 -50 25 -116 75 -100 75 8 0
38 -14 68 -30z m169 -32 c68 -41 94 -64 136 -122 29 -39 63 -91 75 -116 l22
-45 -26 30 c-14 17 -39 53 -55 80 -43 75 -128 147 -232 199 -32 16 -58 31 -58
33 0 13 63 -14 138 -59z m-282 11 c3 -6 -9 -26 -27 -45 -29 -30 -34 -32 -40
-17 -4 12 2 27 19 46 28 29 37 33 48 16z m54 -33 c0 -6 -7 -1 -15 10 -8 10
-15 23 -15 28 0 6 7 1 15 -10 8 -10 15 -23 15 -28z m390 -12 c16 -1 75 -28
303 -138 75 -36 141 -66 145 -66 19 0 114 -32 109 -36 -5 -5 -121 24 -205 52
-69 23 -202 85 -261 122 -29 18 -56 31 -58 28 -6 -6 -88 50 -106 73 -7 8 4 4
23 -9 19 -14 42 -26 50 -26z m65 11 c22 -9 56 -24 75 -32 19 -9 76 -35 125
-58 116 -53 172 -82 180 -94 8 -15 -101 32 -283 120 -90 43 -167 79 -172 79
-5 0 -11 4 -15 9 -6 11 29 2 90 -24z m724 6 c12 -16 21 -42 21 -58 -1 -27 -1
-27 -15 -9 -8 11 -15 28 -15 38 0 11 -11 20 -32 26 -42 11 -49 32 -10 32 22 0
36 -8 51 -29z m-911 -47 c47 -35 58 -49 116 -138 35 -55 36 -58 11 -38 -15 12
-41 41 -59 65 -27 39 -78 90 -156 157 l-25 21 35 -17 c19 -9 54 -32 78 -50z
m778 -19 c-17 -205 -19 -214 -46 -190 -17 15 -18 26 -13 101 4 54 2 84 -4 84
-11 0 -107 -36 -133 -50 -16 -8 -70 14 -70 29 0 5 24 18 53 29 51 20 208 79
216 81 2 1 1 -37 -3 -84z m191 -70 c12 -8 31 -28 42 -44 l21 -28 -53 -16 c-28
-9 -70 -18 -92 -21 -22 -2 -57 -8 -78 -12 l-38 -7 5 54 c3 30 8 81 11 114 4
33 8 73 11 88 l6 28 71 -70 c40 -39 82 -78 94 -86z m-1303 82 c-22 -20 -35
-39 -31 -44 5 -4 22 7 39 26 20 22 33 30 40 23 7 -7 -3 -23 -30 -51 -22 -23
-42 -41 -45 -41 -2 0 -7 14 -11 31 -5 26 0 38 26 69 18 20 37 34 41 29 5 -4
-8 -23 -29 -42z m227 -64 c67 -60 131 -115 142 -123 12 -8 25 -19 29 -25 3 -5
30 -27 60 -48 29 -22 62 -51 72 -65 20 -26 20 -26 0 -11 -79 57 -124 94 -124
101 0 13 -18 9 -23 -6 -4 -9 14 -27 49 -50 54 -36 73 -57 32 -35 -89 48 -253
166 -303 220 -63 66 -105 121 -105 136 0 4 9 -5 19 -20 37 -57 154 -168 222
-212 71 -46 85 -52 74 -35 -3 6 -1 10 5 10 6 0 8 5 4 11 -4 8 -9 8 -13 1 -11
-17 -120 59 -196 137 -71 73 -108 122 -70 91 11 -8 29 -26 41 -40 12 -14 25
-23 28 -20 3 3 -13 25 -34 48 -22 23 -38 42 -35 42 3 0 60 -48 126 -107z
m1329 72 c0 -3 -7 -16 -15 -28 -21 -32 -9 -67 26 -74 32 -6 29 -23 -4 -23 -37
0 -51 16 -50 54 1 21 -4 36 -10 36 -7 1 -1 10 12 20 22 19 41 26 41 15z
m-1476 -43 c5 -8 -73 -102 -85 -102 -4 0 -9 9 -12 20 -3 11 -1 20 4 20 5 0 23
16 40 35 31 35 44 42 53 27z m571 -64 c11 -7 63 -29 115 -51 52 -21 79 -35 60
-31 -19 3 -51 8 -71 9 -20 2 -45 8 -55 15 -18 11 -18 11 1 7 11 -3 29 -8 39
-13 13 -5 17 -4 12 4 -4 6 -26 16 -49 22 -39 11 -177 85 -177 96 0 4 84 -35
125 -58z m681 54 c20 -14 42 -55 37 -68 -4 -10 -11 -4 -22 18 -10 20 -23 32
-32 30 -9 -1 -22 5 -29 13 -11 13 -9 15 11 15 13 0 29 -4 35 -8z m-1168 -83
c77 -75 78 -79 35 -129 -15 -17 -19 -14 -73 44 -32 33 -61 58 -64 55 -3 -3 20
-31 51 -63 l56 -58 -25 -22 -24 -23 -32 38 c-18 21 -32 41 -32 44 0 4 -13 24
-30 45 -30 38 -38 56 -21 45 5 -3 27 17 48 44 21 28 38 50 39 51 0 0 33 -32
72 -71z m497 -13 c14 4 16 3 6 -4 -10 -7 1 -15 43 -31 31 -11 61 -21 66 -21 5
0 11 -4 14 -9 8 -13 -100 21 -154 49 -49 24 -129 81 -130 92 0 3 30 -14 67
-38 46 -30 74 -42 88 -38z m-32 -29 c10 -4 16 -11 12 -16 -3 -5 21 -15 52 -21
104 -21 125 -30 53 -24 -64 5 -166 41 -125 44 l20 1 -20 9 c-11 5 -27 9 -35 9
-13 1 -13 0 0 -10 13 -9 13 -10 0 -6 -8 2 -14 9 -13 15 2 6 -6 16 -16 21 -10
6 -21 17 -25 26 -4 10 9 6 37 -13 23 -16 50 -32 60 -35z m960 -7 c-18 -31 -18
-32 1 -46 11 -8 26 -14 33 -14 7 0 13 -5 13 -11 0 -17 -60 -2 -76 18 -13 19
-6 41 24 76 23 26 26 13 5 -23z m-168 11 c3 -6 -4 -8 -15 -6 -11 2 -20 0 -20
-6 0 -5 4 -9 9 -9 5 0 40 -47 79 -105 52 -79 66 -105 53 -106 -18 -2 -72 -5
-113 -8 -16 0 -28 -4 -28 -8 0 -5 34 -6 75 -3 l75 5 0 -58 c0 -55 -1 -57 -20
-47 -13 7 -20 21 -20 39 0 36 -6 41 -38 31 -29 -8 -76 10 -84 32 -7 20 -1 235
7 247 8 14 32 14 40 2z m-65 -126 c0 -63 -3 -115 -7 -115 -5 0 -17 7 -27 15
-17 13 -18 23 -13 90 5 51 3 75 -4 75 -23 0 -134 -32 -146 -42 -7 -6 -10 -14
-7 -19 3 -5 -3 -6 -12 -2 -12 4 -14 8 -6 11 10 3 10 7 1 18 -6 8 -16 14 -21
14 -6 0 -4 -8 3 -17 12 -15 12 -16 -4 -10 -10 4 -37 8 -60 8 l-42 1 48 12 c26
6 51 16 55 22 7 12 46 21 127 31 27 3 59 9 70 14 44 17 45 14 45 -106z m-457
98 c-7 -2 -19 -2 -25 0 -7 3 -2 5 12 5 14 0 19 -2 13 -5z m544 -15 c-3 -8 -6
-5 -6 6 -1 11 2 17 5 13 3 -3 4 -12 1 -19z m-1152 -27 c9 -16 -13 -23 -34 -11
-12 6 -18 16 -15 25 5 11 11 12 24 5 11 -6 21 -14 25 -19z m295 14 c11 -13 10
-14 -4 -9 -9 3 -16 10 -16 15 0 13 6 11 20 -6z m340 -1 c0 -2 -17 -4 -37 -4
-24 0 -33 3 -25 9 12 7 62 4 62 -5z m96 -6 c4 -5 -11 -8 -34 -8 -23 0 -42 4
-42 8 0 10 66 10 76 0z m528 -29 c-8 -13 -24 -1 -24 18 0 13 3 13 15 3 8 -7
12 -16 9 -21z m-24 -41 c0 -15 -4 -28 -10 -28 -5 0 -7 7 -4 15 3 8 -5 25 -20
38 -35 32 -33 42 4 20 22 -13 30 -25 30 -45z m-1273 16 c-9 -10 -38 16 -31 28
4 6 13 4 22 -6 9 -8 13 -19 9 -22z m113 -2 c0 -13 -61 -92 -99 -129 l-36 -35
-25 31 -26 30 66 69 c64 68 66 69 93 55 15 -7 27 -17 27 -21z m242 -2 c10 0
10 13 1 26 -5 5 31 -30 80 -77 66 -67 107 -97 171 -130 47 -24 83 -45 82 -47
-8 -8 -154 68 -175 92 -27 28 -52 37 -30 9 16 -18 -63 29 -100 61 -17 15 -22
17 -19 6 2 -8 37 -37 76 -64 40 -27 70 -51 68 -53 -2 -2 -35 10 -74 28 -58 27
-71 37 -76 61 -3 15 -3 35 0 43 4 8 2 15 -4 15 -6 0 -15 14 -21 31 -14 40 -13
51 1 22 6 -13 15 -23 20 -23z m186 -9 c45 -21 91 -46 101 -55 26 -24 37 -20
15 6 -12 14 -4 11 22 -10 22 -17 47 -39 55 -49 8 -10 -1 -5 -20 10 -18 15 -36
25 -39 23 -3 -3 8 -16 24 -28 16 -12 47 -41 69 -63 23 -22 29 -31 15 -19 -63
53 -207 147 -277 183 -100 51 -74 53 35 2z m217 23 c17 -2 46 -6 66 -9 32 -4
149 -51 149 -60 0 -2 -43 10 -97 26 -53 16 -110 29 -128 29 -17 0 -40 7 -51
16 -18 15 -18 15 6 9 14 -3 39 -8 55 -11z m-229 -69 c35 -27 49 -32 38 -14 -5
8 -1 8 14 0 12 -6 24 -17 28 -24 5 -8 2 -7 -9 2 -10 8 -20 11 -23 8 -6 -6 95
-77 109 -77 4 0 5 5 1 12 -4 7 -3 8 5 4 6 -4 9 -11 6 -16 -3 -4 7 -18 22 -29
l28 -21 -28 10 c-92 33 -182 91 -277 179 l-45 41 49 -25 c27 -14 64 -36 82
-50z m142 28 c42 -41 43 -52 2 -17 -8 7 -37 24 -65 38 -50 25 -50 25 -17 26
26 0 43 -10 80 -47z m642 32 c-7 -9 -15 -13 -17 -11 -7 7 7 26 19 26 6 0 6 -6
-2 -15z m-1341 -21 c3 -16 1 -17 -13 -5 -19 16 -21 34 -3 29 6 -3 14 -13 16
-24z m1381 16 c0 -5 -9 -14 -20 -20 -23 -12 -27 -32 -5 -24 8 4 15 1 15 -5 0
-6 -7 -11 -16 -11 -12 0 -14 -7 -10 -32 5 -29 5 -30 -4 -9 -6 13 -18 30 -28
37 -15 12 -14 12 7 7 17 -4 22 -3 17 5 -4 6 1 23 10 37 16 25 34 33 34 15z
m32 -23 c-6 -12 -12 -29 -15 -37 -2 -10 -5 -8 -9 7 -3 12 1 31 9 43 19 27 30
18 15 -13z m-1130 -57 c4 0 8 -10 8 -23 0 -13 22 -57 49 -98 l49 -74 -33 -12
c-19 -6 -58 -15 -87 -18 -29 -4 -56 -9 -60 -12 -5 -2 -15 0 -23 5 -15 8 17 16
147 38 l36 6 -49 73 c-27 41 -49 84 -49 97 0 21 -3 19 -22 -12 -12 -19 -46
-63 -76 -97 -29 -35 -48 -63 -41 -63 7 0 9 -3 6 -7 -4 -3 -16 2 -27 12 -20 19
-20 19 12 34 l33 15 -27 4 c-21 2 -28 9 -28 25 -1 21 -1 21 -15 4 -7 -11 -11
-25 -8 -33 3 -8 2 -14 -3 -14 -11 0 -54 42 -54 53 0 4 19 26 41 47 39 36 50
51 80 107 11 21 12 21 72 -18 33 -21 64 -39 69 -39z m-314 58 c14 -14 16 -28
2 -28 -5 0 -14 9 -20 20 -12 22 -1 27 18 8z m372 -13 c14 -19 14 -19 -2 -6
-10 7 -18 18 -18 24 0 6 1 8 3 6 1 -2 9 -13 17 -24z m438 -16 c20 -32 10 -30
-16 2 -13 16 -17 27 -10 24 7 -3 19 -15 26 -26z m147 1 c66 -19 179 -75 133
-65 -38 7 -35 -2 5 -19 17 -8 26 -15 19 -15 -22 -2 -76 30 -64 38 7 4 -30 22
-81 41 -50 18 -96 38 -102 43 -7 7 -3 7 10 2 11 -4 47 -15 80 -25z m-975 -24
c-13 -13 -45 17 -35 34 5 8 12 6 26 -6 13 -12 16 -21 9 -28z m889 19 c10 5
124 -35 118 -42 -3 -2 -28 6 -57 17 -29 11 -55 18 -58 16 -5 -6 83 -46 101
-46 7 0 32 -10 57 -21 25 -12 65 -28 90 -35 l45 -14 -59 5 c-52 5 -107 25
-211 76 -11 6 -33 22 -50 36 -22 18 -24 22 -7 13 12 -6 26 -8 31 -5z m34 -65
c3 0 34 -13 69 -29 69 -32 140 -51 189 -51 18 0 30 -3 26 -6 -7 -7 -70 -7
-102 0 -64 13 -106 30 -159 61 -32 20 -61 34 -63 31 -5 -5 17 -20 87 -61 38
-22 41 -25 15 -19 -16 4 -42 13 -56 20 -15 7 -28 12 -30 10 -2 -2 -14 11 -26
30 -17 27 -18 32 -5 27 14 -5 13 -2 -3 17 -18 22 -17 22 16 -3 20 -15 39 -27
42 -27z m507 40 c0 -5 -4 -10 -10 -10 -5 0 -10 5 -10 10 0 6 5 10 10 10 6 0
10 -4 10 -10z m65 -10 c3 -5 -3 -10 -14 -10 -11 0 -23 5 -26 10 -3 6 3 10 14
10 11 0 23 -4 26 -10z m-884 -27 c13 -16 12 -17 -3 -4 -10 7 -18 15 -18 17 0
8 8 3 21 -13z m135 -14 c3 -6 -5 -3 -20 6 -14 10 -26 19 -26 22 0 7 39 -17 46
-28z m-316 2 c0 -5 -11 -11 -25 -13 -14 -3 -25 -2 -25 3 0 4 10 10 23 12 12 2
23 5 25 6 1 0 2 -3 2 -8z m1040 -1 c0 -4 -11 -7 -25 -5 -37 4 -40 12 -5 13 16
0 30 -3 30 -8z m34 -18 c-4 -20 0 -34 13 -47 17 -18 17 -19 0 -12 -10 4 -23 7
-28 7 -10 0 -12 40 -3 64 10 27 24 18 18 -12z m-1165 -32 c37 -60 40 -72 7
-33 -23 28 -46 66 -46 77 0 14 10 2 39 -44z m1099 -31 c27 -45 27 -46 -1 -46
-20 0 -23 4 -19 23 3 18 0 24 -13 24 -13 0 -16 -6 -11 -25 4 -14 2 -25 -3 -25
-10 0 -18 60 -13 103 l3 28 18 -23 c9 -13 27 -39 39 -59z m-973 62 c-6 -4 -23
-11 -40 -14 l-30 -6 30 14 c35 16 54 19 40 6z m-137 -59 c44 -66 40 -74 -8
-16 -22 27 -40 52 -40 56 0 19 17 4 48 -40z m1120 23 c-3 -3 -9 2 -12 12 -6
14 -5 15 5 6 7 -7 10 -15 7 -18z m-961 9 c-3 -3 -12 -4 -19 -1 -8 3 -5 6 6 6
11 1 17 -2 13 -5z m-157 -89 c0 -5 -16 7 -35 27 -19 20 -35 43 -35 50 0 15 69
-61 70 -77z m117 79 c-3 -3 -12 -4 -19 -1 -8 3 -5 6 6 6 11 1 17 -2 13 -5z
m113 2 c0 -6 -104 -36 -124 -36 -9 0 -16 5 -16 12 0 6 2 9 6 6 3 -3 26 0 52 7
49 14 82 18 82 11z m360 -6 c0 -5 -2 -10 -4 -10 -3 0 -8 5 -11 10 -3 6 -1 10
4 10 6 0 11 -4 11 -10z m-295 -19 c-12 -10 -179 -41 -168 -30 11 11 112 37
148 38 17 1 25 -3 20 -8z m-320 -70 c-7 -6 -65 50 -65 63 0 5 16 -5 35 -24 19
-18 32 -36 30 -39z m435 26 c0 -5 -10 -7 -22 -3 -13 3 -29 6 -35 6 -7 0 -12 3
-12 8 4 21 -3 24 -16 6 -12 -16 -14 -17 -15 -2 0 9 6 18 12 20 17 6 88 -23 88
-35z m65 33 c3 -5 20 -14 38 -19 20 -6 25 -9 12 -10 -11 0 -33 8 -50 19 -16
11 -25 20 -18 20 6 0 15 -4 18 -10z m196 -9 l44 -9 -56 -1 c-43 -1 -58 3 -63
15 -4 11 -1 14 13 9 10 -3 39 -10 62 -14z m298 5 c9 -11 8 -15 -5 -20 -29 -11
-38 -6 -18 9 18 15 17 16 -16 10 -26 -5 -31 -4 -20 4 21 15 45 14 59 -3z
m-204 -6 c-27 -12 -43 -12 -25 0 8 5 22 9 30 9 10 0 8 -3 -5 -9z m415 6 c0 -3
-4 -8 -10 -11 -5 -3 -10 -1 -10 4 0 6 5 11 10 11 6 0 10 -2 10 -4z m-1260 -31
c13 -14 21 -25 18 -25 -2 0 -15 11 -28 25 -13 14 -21 25 -18 25 2 0 15 -11 28
-25z m380 6 c5 -11 10 -28 10 -38 0 -13 -6 -8 -20 15 -23 37 -24 42 -10 42 5
0 14 -9 20 -19z m911 -14 c-17 -17 -13 -35 9 -42 11 -4 18 -11 14 -16 -8 -13
-44 19 -44 38 0 24 23 60 28 45 2 -8 -1 -19 -7 -25z m-951 -124 c0 -8 -6 -13
-12 -11 -18 6 -81 136 -73 149 8 11 85 -114 85 -138z m-4 94 c42 -72 31 -92
-12 -21 -19 31 -34 60 -34 65 0 22 18 5 46 -44z m23 13 c27 -52 13 -52 -17 0
-12 22 -18 40 -13 40 5 0 18 -18 30 -40z m616 17 c-37 -11 -185 -16 -185 -5 0
4 20 7 44 6 24 0 50 3 56 7 9 5 11 4 6 -3 -10 -16 14 -15 55 2 19 8 38 12 44
8 5 -3 -4 -10 -20 -15z m288 8 c-3 -9 -8 -14 -10 -11 -3 3 -2 9 2 15 9 16 15
13 8 -4z m-1282 -11 c12 -14 11 -16 -5 -13 -11 2 -21 10 -24 17 -5 17 13 15
29 -4z m299 -83 c24 -47 25 -58 6 -42 -8 7 -17 8 -20 3 -3 -5 -19 -7 -37 -4
-26 4 -29 6 -15 14 9 5 25 6 36 3 26 -8 26 -5 -11 54 -17 27 -28 55 -24 61 8
12 26 -13 65 -89z m271 82 c11 -15 11 -16 0 -6 -7 6 -20 9 -29 6 -10 -4 -13
-2 -8 5 10 17 21 15 37 -5z m499 9 c0 -13 -48 -32 -78 -31 -22 0 -17 4 23 19
28 9 51 18 53 19 1 0 2 -3 2 -7z m60 -2 c0 -11 -52 -40 -72 -40 -7 0 3 11 22
25 38 26 50 30 50 15z m-510 -8 c0 -5 -6 -16 -13 -26 -11 -16 -13 -15 -15 8
-1 17 3 26 13 26 8 0 15 -4 15 -8z m-140 -6 c0 -2 -7 -6 -15 -10 -8 -3 -15 -1
-15 4 0 6 7 10 15 10 8 0 15 -2 15 -4z m768 -13 c6 -19 -33 -16 -49 3 -11 14
-9 15 16 12 16 -1 30 -9 33 -15z m-720 -40 c9 -7 11 -13 6 -13 -17 0 -34 23
-33 45 1 20 1 20 6 0 3 -11 12 -26 21 -32z m37 36 c11 -16 1 -19 -13 -3 -7 8
-8 14 -3 14 5 0 13 -5 16 -11z m106 -6 c13 -16 12 -17 -3 -5 -14 11 -19 10
-32 -10 -9 -12 -16 -17 -16 -11 0 10 26 43 34 43 2 0 10 -8 17 -17z m94 7 c3
-5 -1 -10 -9 -10 -9 0 -16 5 -16 10 0 6 4 10 9 10 6 0 13 -4 16 -10z m83 -40
c3 -7 -12 -1 -32 12 -20 13 -36 27 -36 31 0 12 64 -29 68 -43z m307 40 c-3 -5
-13 -10 -21 -10 -8 0 -12 5 -9 10 3 6 13 10 21 10 8 0 12 -4 9 -10z m-438 -22
c-3 -8 -6 -5 -6 6 -1 11 2 17 5 13 3 -3 4 -12 1 -19z m161 8 c-7 -8 -15 -12
-17 -11 -5 6 10 25 20 25 5 0 4 -6 -3 -14z m42 4 c0 -5 -10 -15 -22 -21 -23
-12 -23 -12 -4 10 21 23 26 26 26 11z m-701 -4 c-7 -7 -130 -36 -152 -36 -36
0 -5 18 48 28 53 10 111 15 104 8z m736 -6 c-3 -5 -11 -10 -16 -10 -6 0 -7 5
-4 10 3 6 11 10 16 10 6 0 7 -4 4 -10z m-515 -21 c0 -5 -7 -9 -15 -9 -15 0
-20 12 -9 23 8 8 24 -1 24 -14z m320 -7 c0 -15 -2 -15 -10 -2 -13 20 -13 33 0
25 6 -3 10 -14 10 -23z m-535 9 c-14 -12 -104 -35 -111 -28 -3 3 14 11 37 17
24 6 49 13 54 15 19 7 29 5 20 -4z m1269 -16 c-4 -8 -10 -13 -15 -10 -4 3 -6
12 -3 20 4 8 10 13 15 10 4 -3 6 -12 3 -20z m-995 -35 c-16 -10 -52 3 -57 21
-2 9 -1 10 5 3 4 -6 16 -14 26 -17 14 -5 20 -1 25 15 5 20 7 21 10 4 2 -10 -2
-22 -9 -26z m-279 15 c-43 -17 -50 -17 -50 -6 0 11 24 19 60 19 21 0 20 -1
-10 -13z m267 9 c-3 -3 -12 -4 -19 -1 -8 3 -5 6 6 6 11 1 17 -2 13 -5z m88
-14 c3 -5 2 -10 -4 -10 -5 0 -13 5 -16 10 -3 6 -2 10 4 10 5 0 13 -4 16 -10z
m82 4 c-3 -3 -12 -4 -19 -1 -8 3 -5 6 6 6 11 1 17 -2 13 -5z m153 -81 c-8 -3
-30 -14 -47 -25 -18 -11 -33 -17 -33 -15 0 9 65 47 80 46 13 -1 13 -1 0 -6z
m567 -452 c-1 -16 -4 -27 -6 -25 -2 2 -10 -4 -18 -14 -10 -13 -10 -9 1 15 14
27 14 32 1 37 -9 3 -21 -5 -30 -22 -15 -27 -16 -27 -9 -2 5 20 4 23 -7 13 -13
-13 -58 -19 -46 -7 9 9 80 33 99 34 13 0 17 -7 15 -29z m48 -21 c3 -5 -3 -10
-15 -10 -12 0 -18 5 -15 10 3 6 10 10 15 10 5 0 12 -4 15 -10z m-174 -61 c-5
-13 -10 -19 -10 -12 -1 15 10 45 15 40 3 -2 0 -15 -5 -28z m119 11 c0 -5 -4
-10 -10 -10 -5 0 -10 5 -10 10 0 6 5 10 10 10 6 0 10 -4 10 -10z m129 -22 c0
-16 -2 -18 -6 -8 -3 8 -11 18 -17 22 -7 5 -4 8 7 8 11 0 17 -7 16 -22z m-189
-4 c0 -8 -4 -12 -10 -9 -5 3 -10 10 -10 16 0 5 5 9 10 9 6 0 10 -7 10 -16z
m40 -4 c0 -5 -4 -10 -10 -10 -5 0 -10 5 -10 10 0 6 5 10 10 10 6 0 10 -4 10
-10z m130 0 c0 -5 -4 -10 -10 -10 -5 0 -10 5 -10 10 0 6 5 10 10 10 6 0 10 -4
10 -10z m-250 -9 c0 -5 -9 -7 -20 -4 -26 7 -50 -13 -44 -35 5 -16 5 -16 -5 0
-18 27 -3 48 35 48 19 0 34 -4 34 -9z m-94 -17 c-4 -9 -1 -23 5 -30 8 -10 8
-14 0 -14 -6 0 -11 5 -11 11 0 5 -4 7 -10 4 -13 -8 -13 1 0 26 13 23 25 25 16
3z m244 -4 c0 -5 -2 -10 -4 -10 -3 0 -8 5 -11 10 -3 6 -1 10 4 10 6 0 11 -4
11 -10z m43 -9 c3 -14 0 -17 -14 -14 -15 4 -17 8 -8 19 15 18 16 18 22 -5z
m85 -53 l-2 -73 -3 63 c-3 50 -7 62 -21 63 -14 0 -13 2 3 9 11 5 21 9 23 9 1
1 1 -32 0 -71z m-236 2 c-7 -6 -10 -7 -7 -4 3 4 0 13 -6 20 -6 7 -7 19 -3 25
5 9 10 6 17 -9 7 -16 7 -26 -1 -32z m38 30 c0 -5 -5 -10 -11 -10 -5 0 -7 5 -4
10 3 6 8 10 11 10 2 0 4 -4 4 -10z m-105 -18 c-3 -3 -11 0 -18 7 -9 10 -8 11
6 5 10 -3 15 -9 12 -12z m145 12 c0 -8 -19 -13 -24 -6 -3 5 1 9 9 9 8 0 15 -2
15 -3z m85 -36 c10 -18 20 -27 23 -20 2 7 -2 20 -10 29 -11 14 -11 16 2 11 21
-7 24 -42 5 -58 -13 -11 -18 -11 -28 0 -9 10 -9 11 1 6 6 -4 12 -2 12 3 0 6
-7 11 -16 11 -10 0 -14 6 -11 14 3 7 0 19 -6 25 -6 6 -7 11 -1 11 5 0 18 -14
29 -32z m-255 17 c0 -3 -11 -10 -25 -15 -35 -13 -31 -37 8 -54 31 -14 31 -14
7 -15 -31 -1 -50 16 -50 44 0 12 5 26 12 33 12 12 48 17 48 7z m210 -14 c0 -4
-7 -8 -15 -8 -16 0 -20 9 -9 20 8 8 24 -1 24 -12z m-141 -27 c-7 -8 -12 -13
-13 -12 -1 2 -7 10 -14 19 -11 14 -9 16 13 11 21 -3 23 -7 14 -18z m108 0 c5
-13 7 -13 14 -2 7 10 9 10 9 -2 0 -12 2 -12 9 -1 6 9 11 10 15 2 4 -6 2 -11
-4 -11 -6 0 -8 -5 -4 -12 6 -10 5 -10 -8 -1 -8 7 -17 11 -20 8 -3 -3 -13 4
-23 15 -11 12 -13 20 -6 20 6 0 14 -7 18 -16z m-84 -14 c-3 -11 -12 -20 -21
-20 -13 0 -12 3 3 20 10 11 19 20 21 20 1 0 0 -9 -3 -20z m77 -20 c12 -17 18
-30 13 -30 -4 0 -18 16 -31 36 -28 42 -13 37 18 -6z m10 -50 c4 0 10 -7 14
-15 4 -13 2 -13 -14 -5 -24 13 -50 49 -50 70 0 8 10 0 21 -17 12 -18 25 -33
29 -33z m107 23 c-14 -14 -15 -14 -14 3 2 22 20 38 26 23 2 -6 -4 -18 -12 -26z
m-347 20 c0 -5 -7 -17 -15 -27 -15 -20 -20 -10 -9 18 6 16 24 22 24 9z m150
-5 c11 3 12 1 4 -7 -13 -14 -67 -4 -58 10 3 5 12 5 22 0 9 -4 24 -6 32 -3z
m137 -16 c-3 9 0 19 8 21 7 3 15 -3 18 -13 3 -11 0 -18 -7 -17 -6 1 -10 -6
-10 -16 3 -29 -17 -15 -32 23 l-14 35 21 -25 c12 -15 19 -18 16 -8z m-257 -7
c0 6 9 11 20 11 13 0 19 -5 15 -14 -3 -7 -5 -19 -6 -25 0 -7 -4 -3 -9 8 -5 11
-9 14 -9 6 -1 -11 -4 -11 -16 -1 -8 7 -15 18 -15 24 0 6 5 4 10 -4 5 -8 10
-10 10 -5z m114 -9 c4 2 2 -1 -2 -7 -5 -5 -20 -11 -33 -12 -13 0 -28 -6 -32
-12 -5 -6 -6 -2 -3 8 3 10 6 22 6 27 0 5 13 5 29 0 16 -4 32 -6 35 -4z m89
-37 c23 -13 27 -19 14 -19 -21 0 -67 43 -67 62 0 8 5 5 11 -5 6 -10 25 -27 42
-38z m-58 -14 c1 -32 -2 -42 -10 -35 -9 7 -11 38 -6 84 3 25 14 -9 16 -49z
m-155 24 c0 -5 -7 -9 -15 -9 -15 0 -20 12 -9 23 8 8 24 -1 24 -14z m315 11 c3
-5 -1 -10 -9 -10 -9 0 -16 5 -16 10 0 6 4 10 9 10 6 0 13 -4 16 -10z m-300
-39 c3 -5 1 -12 -5 -16 -5 -3 -10 1 -10 9 0 18 6 21 15 7z m95 -2 c0 -6 -6 -9
-14 -6 -8 3 -20 -1 -28 -10 -11 -14 -10 -15 11 -8 16 5 21 4 17 -4 -10 -16
-31 -14 -47 5 -10 13 -10 17 2 25 20 12 59 11 59 -2z m76 -24 c1 -14 -2 -23
-7 -20 -5 4 -9 18 -9 32 0 32 12 23 16 -12z m27 -5 c3 -11 1 -18 -4 -14 -5 3
-9 12 -9 20 0 20 7 17 13 -6z m27 16 c0 -3 -4 -8 -10 -11 -5 -3 -10 -1 -10 4
0 6 5 11 10 11 6 0 10 -2 10 -4z m-190 -40 c0 -9 9 -12 26 -8 17 3 25 1 21 -5
-8 -12 -57 -14 -57 -3 0 5 -3 16 -7 26 -4 12 -3 15 5 10 7 -4 12 -13 12 -20z
m88 -1 c-3 -3 -13 -2 -22 1 -14 5 -15 9 -4 15 13 8 36 -6 26 -16z m46 -21 c3
-8 2 -12 -4 -9 -6 3 -10 -2 -10 -11 0 -22 -13 -10 -17 16 -3 24 22 27 31 4z
m86 -26 c0 -19 -2 -20 -10 -8 -13 19 -13 30 0 30 6 0 10 -10 10 -22z m-190 2
c0 -5 -7 -10 -15 -10 -8 0 -15 5 -15 10 0 6 7 10 15 10 8 0 15 -4 15 -10z"/>
<path d="M2017 4558 c-4 -27 -2 -47 6 -55 9 -10 12 -1 10 38 -2 65 -9 71 -16
17z"/>
<path d="M1982 4545 c2 -47 18 -57 18 -11 0 19 -4 38 -10 41 -5 3 -9 -9 -8
-30z"/>
<path d="M2100 4511 c0 -39 17 -49 18 -11 0 16 -4 32 -9 35 -5 4 -9 -7 -9 -24z"/>
<path d="M2140 4525 c-1 -11 -3 -28 -5 -37 -2 -10 0 -20 5 -23 11 -7 18 38 9
61 -7 18 -8 18 -9 -1z"/>
<path d="M2170 4481 c0 -28 5 -51 10 -51 6 0 10 20 10 44 0 25 -4 48 -10 51
-6 4 -10 -13 -10 -44z"/>
<path d="M2362 4416 c-18 -39 -32 -78 -32 -86 0 -20 65 88 73 122 14 54 -9 34
-41 -36z"/>
<path d="M2246 4454 c-6 -24 -2 -43 8 -33 11 10 17 59 8 59 -5 0 -13 -12 -16
-26z"/>
<path d="M2294 4453 c-3 -16 -8 -35 -10 -43 -4 -10 -2 -12 4 -5 11 12 26 75
18 75 -3 0 -8 -12 -12 -27z"/>
<path d="M2331 4427 c-16 -41 -13 -57 5 -24 8 16 13 34 11 40 -3 7 -10 -1 -16
-16z"/>
<path d="M2401 4370 c-5 -16 -6 -30 -1 -30 4 0 13 14 19 30 5 17 6 30 1 30 -4
0 -13 -13 -19 -30z"/>
<path d="M2437 4345 c-19 -40 -20 -45 -9 -45 9 0 36 69 30 76 -3 2 -12 -12
-21 -31z"/>
<path d="M2466 4332 c-11 -23 -17 -45 -13 -48 8 -9 39 55 35 74 -2 10 -10 0
-22 -26z"/>
<path d="M2505 4315 c-32 -49 -48 -93 -26 -69 23 25 80 124 71 124 -6 0 -26
-25 -45 -55z"/>
<path d="M2537 4261 c-19 -33 -21 -41 -9 -41 8 0 16 14 40 63 2 4 0 7 -5 7 -5
0 -16 -13 -26 -29z"/>
<path d="M2561 4232 c-23 -33 -26 -42 -11 -42 11 0 44 59 37 67 -3 2 -14 -9
-26 -25z"/>
<path d="M2582 4194 c-13 -20 -21 -38 -19 -40 7 -7 47 46 47 62 0 20 -2 18
-28 -22z"/>
<path d="M2636 4139 c-14 -11 -24 -25 -21 -30 4 -5 18 3 32 17 32 32 25 41
-11 13z"/>
<path d="M2656 4111 c-10 -11 -16 -25 -14 -32 2 -7 14 1 27 19 24 35 15 44
-13 13z"/>
<path d="M2666 4078 c-9 -12 -16 -26 -16 -31 0 -13 29 12 41 35 14 26 -6 23
-25 -4z"/>
<path d="M1681 4541 c1 -34 6 -61 10 -61 13 0 11 108 -1 115 -7 4 -10 -15 -9
-54z"/>
<path d="M1527 4383 c-14 -14 -6 -42 14 -48 30 -10 57 18 39 39 -13 16 -42 21
-53 9z"/>
<path d="M1815 4361 c-7 -24 14 -51 40 -51 27 0 16 64 -12 68 -14 2 -23 -3
-28 -17z"/>
<path d="M2120 4231 c-8 -16 -6 -23 12 -35 28 -20 34 -20 42 0 17 44 -32 75
-54 35z"/>
<path d="M1690 4166 c0 -2 7 -9 15 -16 9 -7 15 -8 15 -2 0 5 -7 12 -15 16 -8
3 -15 4 -15 2z"/>
<path d="M2401 4050 c-22 -13 -9 -55 18 -58 32 -5 46 11 32 36 -13 24 -33 33
-50 22z"/>
<path d="M1410 4085 c0 -13 168 -155 185 -155 5 0 -8 15 -30 32 -22 18 -63 54
-91 80 -47 44 -64 56 -64 43z"/>
<path d="M1344 4008 c36 -47 86 -92 93 -84 7 7 -97 116 -110 116 -4 0 3 -15
17 -32z"/>
<path d="M1321 3993 c29 -36 82 -84 87 -78 7 7 -78 95 -91 95 -5 0 -3 -8 4
-17z"/>
<path d="M1270 3964 c0 -16 93 -124 106 -124 6 0 -86 119 -98 126 -4 3 -8 2
-8 -2z"/>
<path d="M2644 3806 c-9 -24 4 -48 23 -44 12 2 18 12 18 28 0 29 -32 41 -41
16z"/>
<path d="M1540 3839 c-15 -28 -4 -38 15 -13 17 22 19 34 5 34 -5 0 -14 -9 -20
-21z"/>
<path d="M1492 3780 c-7 -11 -8 -20 -4 -20 5 0 17 9 27 20 14 15 15 20 4 20
-8 0 -20 -9 -27 -20z"/>
<path d="M1446 3744 c-9 -24 -7 -28 9 -14 17 14 20 30 6 30 -5 0 -12 -7 -15
-16z"/>
<path d="M1874 3815 c25 -36 67 -75 81 -75 8 0 -85 103 -98 108 -4 2 4 -13 17
-33z"/>
<path d="M1620 3785 c-16 -42 -12 -55 14 -55 35 0 56 10 56 27 0 10 -7 14 -20
10 -15 -4 -20 0 -20 13 0 30 -19 33 -30 5z"/>
<path d="M1575 3710 c-4 -16 -4 -34 0 -40 9 -14 48 -13 63 2 18 18 14 30 -8
23 -15 -5 -21 0 -26 19 -8 35 -21 33 -29 -4z"/>
<path d="M813 4159 c-53 -10 -86 -27 -150 -81 -91 -76 -141 -161 -191 -324
-30 -96 -25 -288 10 -424 46 -175 57 -202 136 -340 31 -54 155 -187 247 -265
26 -22 65 -64 88 -94 75 -96 71 -86 47 -119 -27 -36 -28 -77 -4 -127 22 -48
86 -111 134 -133 24 -12 36 -25 38 -42 8 -53 35 -60 53 -13 8 22 13 24 56 18
27 -3 57 -8 68 -10 11 -3 47 -37 80 -78 33 -40 77 -86 98 -103 21 -16 54 -44
75 -62 20 -17 43 -30 50 -27 7 3 11 1 8 -3 -3 -4 4 -14 16 -21 11 -7 17 -8 14
-2 -4 7 -1 8 8 5 9 -3 13 -10 10 -15 -3 -5 3 -6 12 -2 11 4 15 3 10 -5 -3 -6
-1 -14 5 -18 8 -4 9 -3 5 4 -4 7 -2 12 3 12 6 0 11 -4 11 -9 0 -4 61 -9 136
-9 128 -2 202 7 249 27 11 5 70 23 130 41 107 31 186 65 310 132 74 40 111 66
103 73 -3 3 -16 -4 -31 -15 -14 -11 -29 -20 -34 -20 -4 0 -43 -20 -85 -44 -81
-46 -144 -72 -167 -67 -7 1 -11 -2 -8 -6 3 -5 -49 -26 -116 -47 -233 -72 -282
-80 -244 -38 31 34 46 87 42 142 -5 55 -59 178 -82 187 -7 3 -10 10 -6 16 3 5
2 7 -4 4 -6 -4 -10 -17 -9 -29 1 -13 -3 -26 -9 -30 -6 -5 -6 -8 3 -8 6 0 12
-7 12 -15 0 -9 7 -18 15 -21 8 -4 15 -12 15 -20 0 -25 -17 -14 -35 22 -12 26
-21 34 -33 30 -15 -5 -15 -4 1 8 19 15 18 45 -3 73 -14 17 -14 17 3 4 9 -8 20
-11 23 -8 9 9 -96 58 -108 51 -7 -4 -8 -3 -4 5 6 9 0 10 -21 6 -21 -5 -24 -4
-13 4 12 9 9 11 -15 11 -39 0 -22 13 45 33 42 12 69 30 109 69 81 81 106 130
106 208 -1 71 -10 120 -24 120 -5 0 -5 -16 -1 -37 5 -20 8 -61 7 -92 -4 -98
-99 -219 -200 -254 -123 -42 -290 -19 -351 49 -42 48 -54 43 -15 -6 26 -32 46
-44 97 -60 35 -11 78 -20 96 -20 29 -1 29 -2 -14 -17 -25 -8 -51 -20 -59 -26
-7 -6 -20 -12 -28 -13 -29 -5 -44 -14 -38 -24 4 -6 3 -10 -2 -8 -4 1 -22 -7
-39 -17 -34 -21 -39 -50 -15 -95 l13 -25 -24 25 c-13 14 -51 61 -83 105 -32
44 -62 82 -66 85 -3 3 -32 44 -62 92 -31 47 -61 89 -66 93 -17 10 -13 -16 4
-34 9 -9 33 -44 55 -78 21 -34 60 -87 85 -119 26 -31 43 -60 38 -65 -7 -7 -38
-3 -130 17 -13 2 -23 10 -23 16 0 9 3 9 12 0 18 -18 27 -15 21 8 -6 24 -31 26
-48 3 -11 -15 -15 -15 -46 5 -71 46 -114 101 -122 157 -6 44 28 102 65 109 39
8 130 95 189 183 27 40 49 75 49 79 0 8 32 33 44 34 4 0 -2 -9 -15 -21 -20
-17 -18 -17 13 3 21 13 38 28 38 34 0 9 51 35 260 132 30 14 57 29 60 33 3 4
24 15 48 24 23 10 42 21 42 26 0 4 12 15 28 24 l27 15 -30 -7 c-16 -4 -40 -7
-52 -6 -14 0 -20 -3 -16 -10 3 -6 1 -7 -5 -3 -15 9 -63 -4 -56 -16 3 -5 0 -8
-7 -6 -22 5 -191 -63 -222 -89 -16 -12 -35 -23 -42 -23 -8 0 -26 -11 -41 -25
-15 -14 -29 -23 -32 -21 -2 3 3 24 12 48 9 24 18 61 21 83 2 22 8 64 13 92 24
141 -21 396 -109 621 -39 101 -44 112 -106 214 -47 76 -133 168 -159 168 -4 0
-15 7 -25 16 -21 19 -110 25 -176 13z m81 -58 c16 -17 27 -33 24 -37 -7 -7
-88 64 -88 78 0 13 31 -6 64 -41z m23 27 c13 -12 23 -25 23 -30 0 -12 -47 21
-54 38 -8 20 4 17 31 -8z m43 1 c0 -4 -7 -6 -15 -3 -8 4 -15 10 -15 15 0 4 7
6 15 3 8 -4 15 -10 15 -15z m-111 -38 c51 -48 63 -71 37 -71 -15 0 -106 94
-106 110 0 20 20 9 69 -39z m-34 -32 c38 -39 55 -63 48 -70 -11 -11 -135 110
-127 123 10 15 21 8 79 -53z m232 29 c42 -30 44 -33 22 -36 -13 -2 -31 -13
-41 -25 -16 -21 -16 -20 -28 23 -6 25 -13 51 -15 58 -7 21 15 14 62 -20z
m-191 -146 c7 -10 10 -29 7 -43 -2 -14 6 -43 21 -71 27 -51 20 -63 -14 -26
-27 29 -34 59 -25 106 5 28 4 34 -5 25 -9 -8 -26 5 -71 57 -32 38 -64 72 -69
75 -8 5 -7 11 0 21 10 11 24 0 78 -56 37 -38 72 -78 78 -88z m-173 111 c2 -5
-18 -28 -45 -52 -56 -51 -64 -39 -12 19 36 39 49 47 57 33z m33 -35 c4 -6 -5
-20 -22 -32 -16 -11 -55 -45 -86 -73 -61 -56 -75 -63 -75 -37 0 17 25 42 105
110 56 46 66 51 78 32z m274 -61 c31 -12 49 -47 23 -47 -8 0 -22 4 -32 9 -26
14 -74 88 -66 101 5 7 14 0 27 -20 10 -18 32 -37 48 -43z m89 59 c8 -10 9 -16
1 -21 -13 -8 -30 3 -30 21 0 18 14 18 29 0z m92 -79 l23 -41 -28 22 c-43 33
-106 24 -106 -16 -1 -15 -2 -15 -11 1 -16 27 -29 77 -20 77 4 0 12 -5 18 -11
6 -6 21 -9 34 -7 20 2 24 9 24 36 l0 33 21 -26 c12 -15 32 -46 45 -68z m-228
-4 c17 -19 45 -36 64 -39 49 -9 46 -39 -3 -31 -72 12 -133 74 -118 120 6 20 7
20 17 1 5 -10 23 -34 40 -51z m-200 51 c5 -6 -235 -246 -253 -252 -4 -2 -4 14
2 35 7 27 22 48 54 72 24 18 59 49 77 67 32 33 96 83 108 84 3 0 8 -3 12 -6z
m37 -44 c0 -4 -69 -77 -152 -161 -115 -116 -153 -149 -156 -136 -8 38 13 65
143 189 92 89 138 126 149 122 9 -3 16 -10 16 -14z m18 -59 c-68 -77 -305
-311 -315 -311 -35 0 -9 35 140 185 123 124 168 164 181 159 15 -6 15 -9 -6
-33z m372 -10 c0 -28 -19 -39 -53 -32 -37 8 -48 39 -23 64 14 14 19 14 46 1
16 -9 30 -23 30 -33z m-263 -8 c10 -21 27 -42 38 -48 21 -10 23 -45 2 -45 -14
0 -67 90 -67 114 0 25 8 19 27 -21z m323 -39 c16 -36 30 -68 30 -71 0 -4 11
-34 24 -67 14 -34 27 -72 30 -86 2 -14 12 -48 20 -75 8 -28 18 -68 22 -90 3
-22 8 -43 10 -47 11 -17 14 -213 5 -260 -6 -29 -13 -69 -16 -88 -12 -68 -28
-125 -48 -165 -12 -22 -22 -45 -23 -52 -1 -6 -17 -37 -35 -67 l-33 -55 -23 21
c-19 18 -27 20 -48 10 -27 -13 -30 -7 -15 33 5 14 12 38 15 53 3 15 7 38 10
52 25 110 31 431 11 531 -9 41 -16 84 -16 97 0 22 1 22 22 8 28 -20 51 -20 87
-1 36 18 43 44 24 84 -17 34 -40 45 -77 35 -28 -7 -46 -31 -46 -62 0 -31 -25
-45 -65 -38 -38 8 -105 59 -105 82 0 22 11 17 46 -21 27 -30 48 -39 80 -34 4
0 10 -5 14 -11 21 -34 14 28 -16 145 -18 72 -33 133 -34 137 0 4 14 3 31 -2
41 -12 68 3 76 41 3 16 7 29 9 29 2 0 17 -30 34 -66z m-424 -11 c-10 -10 -19
5 -10 18 6 11 8 11 12 0 2 -7 1 -15 -2 -18z m238 -29 c-10 -19 -22 -34 -27
-34 -11 0 1 38 21 70 23 37 28 6 6 -36z m-37 11 c-11 -38 -27 -47 -27 -16 0
29 11 51 25 51 10 0 11 -7 2 -35z m-211 -31 c-6 -16 -8 -16 -22 4 -19 28 -8
51 14 29 8 -9 12 -23 8 -33z m264 -41 c24 -6 40 -20 40 -35 0 -4 -15 -2 -32 4
-18 5 -64 18 -103 28 -109 28 -145 42 -145 56 0 9 30 4 108 -17 59 -16 118
-32 132 -36z m-287 27 c26 -31 20 -46 -8 -20 -25 23 -32 40 -17 40 4 0 15 -9
25 -20z m16 -80 c1 -24 -1 -23 -40 17 -50 49 -45 78 6 36 21 -17 34 -37 34
-53z m136 39 c9 -13 -21 -46 -58 -66 -16 -8 -27 -17 -24 -19 9 -10 86 40 96
63 13 28 38 26 33 -3 -5 -24 -28 -50 -66 -73 -38 -23 -98 -31 -103 -13 -3 6 4
13 14 13 16 1 16 2 1 6 -31 8 -20 29 23 46 24 10 43 24 46 37 6 21 28 27 38 9z
m-176 -44 c22 -24 41 -47 41 -50 0 -13 -21 -2 -69 36 -28 22 -51 36 -51 31 0
-5 25 -29 55 -52 34 -26 55 -50 55 -62 0 -18 -2 -19 -19 -7 -56 40 -120 95
-121 102 0 11 42 46 56 47 6 0 30 -20 53 -45z m257 1 c-8 -33 -67 -92 -112
-111 -48 -20 -111 -21 -95 -1 6 7 29 16 50 19 51 6 116 51 136 94 18 38 31 38
21 -1z m57 -27 c12 -24 32 -48 45 -54 25 -11 29 -25 7 -25 -49 0 -104 67 -90
111 8 25 10 23 38 -32z m-349 -59 c39 -32 66 -61 66 -72 0 -22 -6 -20 -70 31
-79 63 -101 87 -94 104 5 13 8 14 19 4 6 -7 42 -37 79 -67z m-91 18 c13 -13
53 -47 90 -77 38 -31 67 -62 67 -73 0 -27 -10 -23 -81 36 -125 104 -132 112
-125 124 11 18 24 15 49 -10z m645 -27 c12 -35 0 -51 -40 -51 -17 0 -31 7 -38
21 -20 36 -5 50 57 58 6 0 16 -12 21 -28z m-643 -44 c39 -34 91 -79 117 -100
25 -21 48 -49 51 -62 5 -30 4 -30 -31 -8 -33 22 -30 19 -141 127 -79 77 -99
106 -73 106 4 0 39 -28 77 -63z m0 -68 c58 -56 117 -110 134 -120 58 -35 54
-61 -6 -30 -40 21 -92 69 -184 168 -65 70 -74 83 -59 83 7 0 58 -46 115 -101z
m343 74 c22 -31 41 -92 35 -110 -9 -25 -31 -13 -38 20 -4 17 -16 48 -26 68
-27 54 -5 69 29 22z m-478 -9 c11 -12 10 -18 -3 -32 -16 -15 -17 -15 -17 0 0
9 -3 23 -6 32 -8 20 10 21 26 0z m433 -16 c25 -53 31 -88 16 -87 -15 0 -71
104 -61 113 13 14 31 4 45 -26z m-59 -7 c20 -18 40 -61 31 -69 -3 -3 -19 11
-36 31 -17 20 -39 37 -49 37 -13 0 -17 5 -14 15 7 18 39 12 68 -14z m195 -28
c-10 -21 -19 -45 -19 -55 0 -10 -4 -18 -10 -18 -14 0 -13 53 2 85 6 14 19 25
29 25 16 0 16 -3 -2 -37z m52 -10 c-17 -21 -31 -46 -31 -55 0 -10 -7 -18 -16
-18 -13 0 -15 7 -11 30 10 47 36 80 64 80 l24 0 -30 -37z m-582 13 c9 -11 7
-20 -14 -40 -31 -31 -31 -31 -38 -4 -4 14 0 29 10 40 19 22 27 22 42 4z m592
-71 c-34 -44 -35 -9 -1 43 15 22 15 22 18 2 2 -11 -6 -31 -17 -45z m-556 35
c4 -6 -10 -26 -29 -45 -44 -42 -57 -28 -19 20 30 37 38 41 48 25z m458 -52
c75 -18 137 -35 137 -39 0 -7 -79 5 -127 20 -18 5 -33 8 -33 6 0 -3 -11 0 -25
5 -23 9 -113 22 -157 24 -10 0 -18 7 -18 14 0 18 33 13 223 -30z m-423 16 c0
-3 -19 -25 -42 -50 -33 -36 -44 -42 -50 -30 -6 11 2 25 29 50 34 32 63 46 63
30z m30 -29 c10 -12 8 -20 -10 -42 -11 -16 -35 -47 -52 -70 -35 -47 -48 -47
-48 -1 0 21 13 44 43 78 47 55 50 56 67 35z m320 -43 c0 -27 9 -51 30 -80 37
-51 39 -63 5 -32 -31 29 -52 70 -61 116 -5 27 -3 34 10 34 12 0 16 -10 16 -38z
m40 11 c0 -9 10 -36 21 -60 12 -24 19 -47 15 -50 -9 -9 -56 49 -58 72 0 11 -2
27 -3 35 -1 8 0 18 3 23 6 12 22 -3 22 -20z m44 11 c8 -3 12 -12 9 -20 -3 -8
2 -25 11 -38 13 -20 13 -26 2 -35 -11 -9 -17 -4 -30 23 -15 31 -22 76 -12 76
2 0 11 -3 20 -6z m-387 -69 c-18 -24 -45 -62 -61 -84 -45 -62 -66 -32 -23 33
59 86 89 117 102 106 11 -9 8 -20 -18 -55z m63 20 c0 -3 -30 -52 -67 -108 -60
-91 -67 -99 -76 -80 -8 18 -1 32 39 85 63 83 86 108 96 108 4 0 8 -2 8 -5z
m207 -12 c2 -6 -10 -14 -26 -18 -17 -4 -38 -16 -46 -28 -8 -12 -15 -16 -15
-10 0 6 -3 18 -6 26 -4 10 4 21 23 31 31 17 64 17 70 -1z m-177 -13 c0 -5 -25
-45 -54 -89 -30 -44 -62 -93 -70 -108 -12 -24 -15 -26 -21 -11 -5 13 13 49 59
118 61 91 86 117 86 90z m425 -9 c-3 -6 -15 -11 -25 -11 -31 0 -89 -57 -96
-96 -6 -32 -14 -41 -26 -28 -4 3 0 25 9 49 16 49 64 91 109 97 34 4 38 3 29
-11z m-416 -116 c-56 -140 -89 -201 -100 -184 -14 23 -12 31 57 153 36 65 63
120 61 123 -3 2 -18 -17 -33 -44 -15 -26 -37 -65 -50 -85 -13 -21 -24 -41 -24
-45 -1 -18 -37 -55 -44 -45 -7 11 50 113 110 195 27 37 37 45 47 35 10 -9 6
-29 -24 -103z m186 95 c0 -7 -8 -14 -18 -16 -25 -3 -57 -33 -57 -53 -1 -14 -2
-13 -11 2 -15 26 -2 53 34 71 35 17 52 16 52 -4z m232 -15 c0 -9 -10 -18 -22
-21 -12 -3 -33 -23 -46 -44 -13 -22 -30 -40 -36 -40 -25 0 -12 40 25 80 39 40
79 53 79 25z m-190 -31 c2 -6 -10 -14 -27 -17 -19 -4 -34 -16 -42 -32 -12 -26
-43 -34 -50 -13 -5 13 3 25 37 59 21 21 75 23 82 3z m-150 -11 c3 -7 -3 -9
-16 -6 -12 3 -21 10 -21 15 0 13 32 6 37 -9z m7 -34 c17 -15 -3 -23 -29 -11
-32 15 -34 36 -2 27 12 -4 26 -11 31 -16z m-21 -30 c20 -5 37 -14 37 -19 0
-13 -8 -12 -55 10 -45 21 -38 25 18 9z m1 -35 c32 -14 55 -28 53 -30 -7 -8
-117 37 -117 47 0 12 0 12 64 -17z m346 8 c0 -10 -27 -11 -127 -6 -71 4 -136
7 -145 6 -10 0 -18 3 -18 8 0 6 61 9 145 7 110 -1 145 -5 145 -15z m-392 -22
c9 -6 38 -19 65 -30 74 -31 55 -41 -23 -12 -38 15 -70 32 -70 39 0 16 5 16 28
3z m199 -22 c30 -32 73 -107 73 -128 0 -22 -17 -8 -28 23 -17 48 -73 109 -113
123 l-34 12 36 1 c27 1 42 -6 66 -31z m127 -5 c-8 -33 -33 -73 -45 -73 -17 0
-20 22 -5 39 9 10 16 27 16 39 0 15 6 22 20 22 17 0 19 -4 14 -27z m53 -1
c-17 -41 -60 -101 -76 -107 -28 -11 -25 7 7 33 24 20 33 36 34 64 3 32 7 38
25 38 20 0 21 -2 10 -28z m-177 -57 c17 -25 30 -53 27 -63 -2 -12 -9 -5 -20
22 -19 43 -43 65 -69 66 -10 0 -18 4 -18 9 0 5 -3 17 -6 26 -13 34 53 -13 86
-60z m-203 44 c15 -6 37 -15 48 -20 11 -5 32 -13 48 -19 15 -5 27 -17 27 -26
0 -9 -6 -14 -12 -11 -7 3 -33 13 -58 22 -25 10 -49 22 -54 27 -6 4 -18 8 -28
8 -11 0 -15 5 -12 15 7 18 6 18 41 4z m390 -21 c-3 -8 -6 -5 -6 6 -1 11 2 17
5 13 3 -3 4 -12 1 -19z m-259 -81 c6 -5 12 -17 12 -27 0 -21 -3 -20 -135 40
-61 28 -73 39 -60 52 6 5 158 -49 183 -65z m262 38 c0 -8 -6 -15 -14 -15 -8 0
-24 -12 -35 -27 -12 -14 -24 -23 -27 -20 -9 9 46 77 62 77 8 0 14 -7 14 -15z
m-376 -48 c44 -21 90 -40 103 -43 13 -4 30 -19 38 -35 l15 -28 -27 13 c-127
58 -223 111 -223 123 0 8 3 13 8 11 4 -2 43 -21 86 -41z m652 14 c-6 -9 -46
-22 -46 -15 0 3 10 9 23 14 29 11 29 11 23 1z m54 -5 c0 -2 -7 -7 -16 -10 -8
-3 -12 -2 -9 4 6 10 25 14 25 6z m-437 -31 c67 -6 87 -11 87 -22 0 -12 -8 -14
-37 -8 -96 19 -207 26 -142 10 22 -5 24 -11 24 -60 0 -29 -4 -57 -8 -61 -4 -4
-7 0 -7 9 0 10 -9 36 -19 60 -10 23 -21 52 -24 65 -4 18 -2 21 17 18 11 -2 61
-7 109 -11z m-290 -25 c9 0 17 -6 17 -14 0 -27 -16 -25 -43 4 -30 32 -37 52
-9 27 10 -10 26 -17 35 -17z m582 -17 c-10 -7 -21 -10 -24 -7 -3 4 0 9 7 11 6
3 10 9 7 14 -4 5 2 6 11 2 16 -6 15 -7 -1 -20z m-313 -33 c3 -32 0 -40 -13
-40 -19 0 -31 22 -24 45 3 8 7 22 10 31 8 26 23 7 27 -36z m48 17 c0 -13 6
-29 13 -36 10 -10 8 -12 -8 -9 -20 3 -48 46 -39 60 11 17 34 7 34 -15z m-252
4 c10 -6 9 -13 -5 -30 -17 -21 -20 -22 -32 -7 -11 13 -11 19 -1 31 14 17 20
18 38 6z m52 -27 c0 -14 -26 -54 -35 -54 -21 0 -24 12 -10 41 10 18 20 26 30
23 8 -4 15 -8 15 -10z m43 -26 c15 -12 15 -16 -1 -51 l-17 -39 -19 21 c-16 18
-17 24 -6 51 14 33 19 36 43 18z m195 -20 c-3 -7 -18 -15 -34 -19 -16 -4 -42
-12 -59 -18 -36 -15 -40 -15 -40 0 0 14 80 48 113 48 14 1 22 -4 20 -11z
m-148 -62 c0 -5 -7 -3 -15 4 -8 7 -12 17 -9 22 7 10 24 -9 24 -26z m132 9 c-3
-17 -11 -25 -26 -25 -12 0 -32 -7 -44 -16 -20 -14 -23 -14 -28 1 -8 19 -9 17
41 44 52 27 63 27 57 -4z m75 -21 c3 -8 -2 -23 -11 -32 -16 -16 -18 -16 -31 2
-11 14 -12 23 -4 33 15 18 38 16 46 -3z m-203 -10 c9 -3 16 -13 16 -20 0 -12
-5 -12 -30 1 -16 9 -30 18 -30 20 0 7 25 6 44 -1z m179 -54 c7 0 6 -4 -3 -10
-19 -12 -21 -12 -43 4 -10 8 -15 20 -11 30 6 15 8 15 26 -3 10 -12 24 -21 31
-21z m-145 -8 c6 -20 -27 -13 -38 8 -9 17 -8 19 12 11 12 -4 24 -13 26 -19z
m23 -54 c11 -21 11 -22 -4 -9 -10 7 -17 17 -17 22 0 15 9 10 21 -13z m679
-238 c0 -5 -5 -10 -11 -10 -5 0 -7 5 -4 10 3 6 8 10 11 10 2 0 4 -4 4 -10z
m-75 -20 c-15 -7 -10 -9 24 -9 24 -1 42 -4 38 -7 -9 -9 -86 -10 -80 -1 2 4 -2
7 -9 7 -9 0 -9 3 2 10 8 5 22 9 30 9 10 0 8 -3 -5 -9z m-50 -37 c-5 -10 -7
-22 -6 -27 1 -5 -5 -4 -13 4 -9 7 -16 8 -16 3 0 -5 -10 -9 -22 -10 -17 -2 -15
2 13 19 19 11 36 25 38 30 1 5 5 7 8 4 3 -3 2 -13 -2 -23z m179 -8 c-7 -18
-24 -10 -24 10 0 9 -6 12 -17 9 -15 -5 -15 -4 -4 4 20 14 52 -3 45 -23z m67 8
c13 -16 12 -17 -3 -4 -10 7 -18 15 -18 17 0 8 8 3 21 -13z m-196 -13 c-4 -6
-11 -8 -16 -5 -5 4 -9 -2 -9 -11 0 -14 -3 -15 -12 -6 -10 10 -10 15 2 22 20
13 43 13 35 0z m75 0 c0 -5 7 -10 15 -10 8 0 15 -4 15 -9 0 -5 7 -11 15 -13 8
-2 11 -8 7 -15 -5 -7 -18 0 -42 23 -19 19 -29 34 -22 34 7 0 12 -4 12 -10z
m83 -15 c-7 -21 -12 -19 -10 4 0 11 5 18 9 15 4 -3 5 -11 1 -19z m-124 -8 c6
-8 8 -17 4 -20 -7 -8 -33 11 -33 24 0 13 16 11 29 -4z m171 -1 c0 -2 -7 -7
-16 -10 -8 -3 -12 -2 -9 4 6 10 25 14 25 6z m-300 -16 c0 -5 -4 -10 -10 -10
-5 0 -10 5 -10 10 0 6 5 10 10 10 6 0 10 -4 10 -10z m104 -22 c-3 -5 -12 -4
-20 3 -7 6 -11 15 -8 21 3 5 12 4 20 -3 7 -6 11 -15 8 -21z m76 11 c0 -6 -4
-7 -10 -4 -5 3 -10 11 -10 16 0 6 5 7 10 4 6 -3 10 -11 10 -16z m-510 4 c0 -5
-5 -15 -10 -23 -8 -12 -10 -11 -10 8 0 12 5 22 10 22 6 0 10 -3 10 -7z m684
-8 c-4 -8 -20 -19 -38 -24 -17 -4 -30 -13 -29 -18 1 -5 -5 -10 -13 -10 -18 0
-18 0 4 24 33 38 87 58 76 28z m-434 -1 c0 -8 -19 -13 -24 -6 -3 5 1 9 9 9 8
0 15 -2 15 -3z m49 -8 c7 -9 8 -17 3 -20 -6 -3 -13 2 -16 11 -6 15 -8 15 -16
3 -6 -8 -10 -10 -10 -4 0 25 22 31 39 10z m186 -16 c-6 -9 -9 -9 -16 1 -10 17
0 34 13 21 6 -6 7 -16 3 -22z m54 -24 c1 -6 -5 -1 -13 9 -8 11 -12 24 -8 29 5
9 20 -17 21 -38z m-206 14 c-3 -11 -9 -17 -15 -14 -5 3 -4 12 3 20 16 19 18
18 12 -6z m97 -25 c0 -5 -5 -3 -10 5 -5 8 -10 20 -10 25 0 6 5 3 10 -5 5 -8
10 -19 10 -25z m-30 9 c0 -8 -4 -12 -10 -9 -5 3 -10 10 -10 16 0 5 5 9 10 9 6
0 10 -7 10 -16z m110 6 c0 -5 -4 -10 -10 -10 -5 0 -10 5 -10 10 0 6 5 10 10
10 6 0 10 -4 10 -10z m-149 -17 c13 -16 12 -17 -3 -4 -10 7 -18 15 -18 17 0 8
8 3 21 -13z m-48 -13 c10 0 16 -4 12 -9 -3 -6 -17 -6 -35 1 -17 5 -27 14 -24
20 4 6 10 6 17 -1 6 -6 19 -11 30 -11z m401 -11 c-3 -5 -12 -9 -20 -9 -9 0
-12 5 -8 12 5 8 2 9 -9 5 -11 -4 -17 -1 -17 8 0 11 6 12 30 4 16 -6 27 -15 24
-20z m86 -15 c9 -25 9 -39 2 -46 -8 -8 -9 -4 -5 13 6 22 5 23 -13 9 -15 -11
-16 -11 -6 0 13 15 17 34 5 27 -5 -3 -8 5 -8 18 0 31 11 22 25 -21z m-172 29
c-10 -2 -26 -2 -35 0 -10 3 -2 5 17 5 19 0 27 -2 18 -5z m-221 -9 c-3 -3 -12
-4 -19 -1 -8 3 -5 6 6 6 11 1 17 -2 13 -5z m-113 -35 c-3 -5 -10 -7 -15 -3 -5
3 -7 10 -3 15 3 5 10 7 15 3 5 -3 7 -10 3 -15z m61 12 c-9 -8 -36 -10 -30 -2
2 4 11 8 20 8 8 0 13 -3 10 -6z m19 -15 c-3 -8 -1 -17 5 -21 6 -3 11 -11 11
-18 0 -7 -7 -5 -16 5 -15 14 -14 48 0 48 3 0 3 -6 0 -14z m147 -19 c-10 -9
-11 -8 -5 6 3 10 9 15 12 12 3 -3 0 -11 -7 -18z m74 13 c3 -6 -1 -7 -9 -4 -18
7 -21 14 -7 14 6 0 13 -4 16 -10z m-268 -22 c-3 -8 -6 -5 -6 6 -1 11 2 17 5
13 3 -3 4 -12 1 -19z m298 -17 c-4 -17 -11 -34 -17 -38 -8 -4 -9 0 -4 13 8 19
14 42 15 58 1 5 4 7 7 3 3 -3 3 -19 -1 -36z m79 27 c7 -7 15 -22 19 -33 6 -16
3 -15 -14 5 -12 14 -25 25 -29 25 -5 0 -12 3 -16 8 -4 4 0 7 10 7 10 0 23 -6
30 -12z m-394 -14 c0 -8 -5 -12 -10 -9 -6 4 -8 11 -5 16 9 14 15 11 15 -7z
m44 1 c3 -8 1 -15 -4 -15 -6 0 -10 7 -10 15 0 8 2 15 4 15 2 0 6 -7 10 -15z
m129 -32 c5 -25 4 -26 -8 -10 -8 12 -15 14 -20 8 -7 -13 -25 -15 -25 -3 0 4
10 12 23 18 12 7 23 12 23 13 1 0 4 -11 7 -26z m112 17 c3 -5 2 -10 -4 -10 -5
0 -13 5 -16 10 -3 6 -2 10 4 10 5 0 13 -4 16 -10z m-74 -27 c-12 -20 -14 -14
-5 12 4 9 9 14 11 11 3 -2 0 -13 -6 -23z m256 21 c-3 -3 -12 -4 -19 -1 -8 3
-5 6 6 6 11 1 17 -2 13 -5z m36 -5 c-7 -7 -11 -24 -9 -38 2 -14 1 -18 -1 -8
-2 9 -12 17 -21 17 -13 0 -11 5 8 20 28 22 40 26 23 9z m-416 -30 c1 -19 1
-20 -4 -4 -3 11 -10 24 -17 28 -7 6 -6 7 4 4 8 -2 16 -14 17 -28z m173 11 c8
-5 11 -10 5 -10 -5 0 -17 5 -25 10 -8 5 -10 10 -5 10 6 0 17 -5 25 -10z m-5
-21 c11 -17 0 -20 -21 -4 -17 13 -17 14 -2 15 9 0 20 -5 23 -11z m-15 -24 c20
-24 6 -28 -15 -5 -10 11 -13 20 -8 20 6 0 16 -7 23 -15z m50 -4 c0 -6 -4 -13
-10 -16 -5 -3 -10 1 -10 9 0 9 5 16 10 16 6 0 10 -4 10 -9z m50 -1 c0 -5 -7
-7 -15 -4 -8 4 -15 8 -15 10 0 2 7 4 15 4 8 0 15 -4 15 -10z m71 -13 c-10 -9
-11 -8 -5 6 3 10 9 15 12 12 3 -3 0 -11 -7 -18z m-60 -29 c11 -20 10 -21 -3
-11 -8 7 -18 10 -21 6 -4 -3 -7 -1 -7 6 0 8 -7 10 -21 6 -15 -5 -19 -4 -15 4
12 20 55 12 67 -11z m39 12 c0 -5 -2 -10 -4 -10 -3 0 -8 5 -11 10 -3 6 -1 10
4 10 6 0 11 -4 11 -10z m-130 -41 c0 -16 -28 3 -33 23 -5 19 -5 19 14 2 10 -9
19 -21 19 -25z m150 0 c0 7 5 9 10 6 23 -14 8 -26 -26 -22 -37 5 -59 17 -31
17 10 0 17 6 17 13 0 7 7 4 15 -7 8 -11 15 -14 15 -7z"/>
<path d="M1140 3761 c-12 -24 -4 -48 21 -61 25 -14 35 -13 53 6 24 23 19 49
-9 62 -37 17 -53 15 -65 -7z m58 -14 c14 -17 -2 -42 -22 -34 -20 8 -21 47 -2
47 7 0 18 -6 24 -13z"/>
<path d="M1215 3425 c-31 -30 -32 -59 -3 -79 32 -22 64 -20 82 6 22 31 20 51
-7 76 -30 28 -42 28 -72 -3z m65 -10 c16 -20 4 -65 -17 -65 -20 0 -53 28 -53
46 0 14 27 33 46 34 6 0 17 -7 24 -15z"/>
<path d="M1242 3288 c-32 -32 8 -80 47 -58 19 10 21 35 6 60 -8 14 -38 13 -53
-2z m42 -31 c-7 -19 -20 -22 -29 -7 -9 15 16 43 27 32 5 -5 6 -16 2 -25z"/>
<path d="M1230 3172 c-25 -7 -40 -34 -40 -68 0 -44 60 -99 99 -89 43 10 75 71
54 104 -24 37 -80 64 -113 53z m78 -52 c12 -12 22 -23 22 -25 0 -2 -10 -13
-22 -25 -44 -41 -96 -12 -82 45 8 32 50 34 82 5z m-3 -80 c-3 -5 -12 -10 -18
-10 -7 0 -6 4 3 10 19 12 23 12 15 0z"/>
<path d="M1230 3003 c-40 -16 -53 -78 -22 -106 22 -20 73 -22 90 -5 20 20 14
61 -13 91 -27 28 -30 29 -55 20z m48 -35 c18 -18 14 -46 -8 -53 -23 -7 -60 10
-60 28 0 18 21 37 40 37 9 0 21 -5 28 -12z m-17 -76 c-13 -2 -27 0 -32 5 -6 6
3 7 23 4 28 -4 29 -6 9 -9z"/>
<path d="M1182 2848 c-18 -18 -15 -46 8 -58 15 -8 24 -6 40 10 18 18 18 50 0
50 -5 0 -14 2 -22 5 -7 3 -19 0 -26 -7z m38 -29 c0 -24 -23 -21 -28 4 -2 10 3
17 12 17 10 0 16 -9 16 -21z"/>
<path d="M2605 3273 c-85 -17 -208 -80 -253 -130 -18 -20 -30 -39 -26 -42 3
-3 14 4 24 17 26 32 30 28 24 -22 -5 -37 -1 -56 23 -108 34 -71 55 -95 108
-128 27 -17 33 -25 23 -31 -8 -6 -1 -9 21 -9 33 0 118 41 133 64 12 18 9 29
-4 18 -10 -8 -12 1 -10 42 6 86 -67 221 -143 264 -17 10 -18 13 -5 22 21 14
77 30 133 37 26 3 47 9 47 13 0 10 -16 8 -95 -7z m-74 -88 c16 -9 43 -34 59
-56 24 -34 27 -44 18 -59 -15 -24 -28 -16 -28 16 0 20 -3 22 -13 13 -17 -16
-17 -51 1 -44 10 4 11 -1 6 -17 -6 -19 -5 -21 8 -11 8 7 19 9 23 5 5 -4 5 -1
1 6 -4 6 -2 12 4 12 6 0 8 5 5 10 -3 6 -2 10 3 10 9 0 24 -30 37 -78 9 -31 -3
-94 -16 -86 -5 3 -7 15 -4 27 2 12 2 16 -1 10 -9 -20 -52 -15 -63 5 -13 24 4
42 37 42 13 0 20 4 17 10 -4 6 -11 8 -16 5 -5 -4 -9 0 -9 7 0 9 -3 10 -8 2 -4
-6 -15 -10 -24 -8 -10 1 -18 -4 -18 -11 0 -7 -4 -15 -9 -17 -15 -5 8 -50 29
-55 12 -3 19 -12 18 -22 -2 -10 5 -17 20 -19 37 -5 14 -22 -30 -22 -45 0 -112
35 -102 52 4 6 2 8 -3 5 -15 -10 -79 91 -87 138 -5 25 -4 25 20 7 16 -11 23
-24 21 -38 -3 -15 1 -21 12 -19 9 1 15 10 13 19 -2 9 2 16 8 16 5 0 10 -5 10
-11 0 -15 22 -35 40 -34 9 0 15 10 16 25 1 33 16 74 36 102 8 12 9 21 3 27
-16 16 -37 -4 -37 -33 0 -14 -4 -23 -8 -21 -4 3 -11 -2 -14 -11 -4 -9 -9 -14
-13 -10 -3 3 -14 -1 -24 -10 -16 -14 -19 -14 -39 6 -27 27 -22 52 10 60 26 6
50 -9 50 -32 0 -10 2 -10 9 1 7 10 5 19 -6 26 -9 7 -14 16 -11 21 4 5 -8 10
-25 11 -26 1 -28 0 -12 -7 16 -7 13 -8 -13 -7 l-33 2 33 27 c38 32 57 34 99
13z m-11 -118 c0 -7 -10 -13 -21 -14 -21 -2 -21 -1 -3 12 24 18 24 18 24 2z
m0 -31 c0 -2 -7 -9 -15 -16 -12 -10 -15 -10 -15 4 0 9 7 16 15 16 8 0 15 -2
15 -4z m110 -136 c0 -5 -7 -10 -15 -10 -8 0 -15 5 -15 10 0 6 7 10 15 10 8 0
15 -4 15 -10z"/>
<path d="M2504 2972 c3 -5 0 -13 -6 -15 -9 -4 -10 -6 -1 -6 17 -1 25 16 12 25
-7 4 -9 3 -5 -4z"/>
<path d="M2517 2943 c-4 -3 -7 -11 -7 -17 0 -6 5 -5 12 2 6 6 9 14 7 17 -3 3
-9 2 -12 -2z"/>
<path d="M2534 2909 c-3 -6 -1 -16 4 -21 8 -8 11 -5 9 11 -1 24 -3 25 -13 10z"/>
<path d="M1699 2896 c-2 -3 -16 -7 -31 -10 -45 -8 -71 -25 -213 -140 -56 -46
-75 -66 -60 -66 3 0 47 32 97 70 50 39 93 68 96 66 3 -3 0 -11 -6 -18 -11 -14
-9 -100 3 -133 24 -66 65 -132 100 -162 40 -34 40 -34 10 -27 -27 7 -29 6 -16
-9 30 -37 145 -6 195 53 15 18 24 35 21 38 -3 4 -10 0 -15 -8 -6 -10 -9 -1 -9
30 2 65 -62 215 -107 256 -24 22 -31 34 -22 37 10 4 10 8 -2 16 -16 11 -34 14
-41 7z m60 -71 c16 -14 33 -36 37 -48 4 -12 15 -40 24 -62 31 -70 42 -113 35
-152 -6 -41 -32 -76 -51 -69 -7 3 -14 1 -16 -4 -5 -15 -79 7 -100 30 l-21 22
24 -7 c13 -4 26 -12 27 -16 5 -12 49 -11 57 0 3 5 -1 15 -8 23 -19 19 -26 52
-15 72 6 10 5 16 -2 16 -5 0 -10 -8 -10 -17 0 -13 -6 -9 -20 12 -11 17 -20 25
-20 20 0 -6 5 -16 12 -23 9 -9 4 -10 -21 -2 -30 8 -32 7 -38 -22 l-6 -31 -24
46 c-13 26 -26 67 -29 91 -7 49 2 100 16 91 5 -3 12 4 15 16 14 43 89 51 134
14z m-28 -246 c13 -26 -2 -39 -35 -31 -25 6 -36 20 -29 39 8 21 51 16 64 -8z
m29 -49 c0 -5 -2 -10 -4 -10 -3 0 -8 5 -11 10 -3 6 -1 10 4 10 6 0 11 -4 11
-10z"/>
<path d="M1665 2833 c-42 -11 -47 -62 -10 -99 15 -15 22 -30 18 -41 -4 -10 -2
-14 4 -10 6 4 18 1 26 -7 8 -8 18 -12 21 -8 4 3 11 0 15 -7 14 -21 66 -5 68
21 3 28 -14 48 -39 48 -16 0 -17 3 -8 21 6 11 9 25 7 32 -5 12 -6 9 -21 -35
-3 -10 -11 -18 -17 -18 -8 0 -7 5 2 17 13 15 12 15 -12 0 -23 -15 -27 -15 -47
-1 -27 18 -28 45 -4 67 23 21 36 21 70 1 l27 -16 -24 21 c-23 21 -37 23 -76
14z m75 -119 c0 -2 -7 -4 -15 -4 -8 0 -15 4 -15 10 0 5 7 7 15 4 8 -4 15 -8
15 -10z m51 -4 c15 0 10 -27 -6 -33 -15 -6 -28 7 -31 31 -2 8 3 11 13 8 8 -3
19 -6 24 -6z m-70 -18 c-7 -2 -18 1 -23 6 -8 8 -4 9 13 5 13 -4 18 -8 10 -11z"/>
<path d="M1642 2716 c13 -10 15 -15 6 -24 -7 -7 -9 -12 -5 -12 4 0 3 -9 -3
-19 -7 -14 -7 -22 2 -27 7 -5 8 -3 3 6 -6 10 -4 12 8 7 10 -3 17 -2 17 4 0 6
6 7 13 4 6 -4 1 2 -12 13 -16 13 -20 21 -12 26 14 9 -4 36 -23 36 -6 0 -3 -6
6 -14z"/>
<path d="M1760 2601 c0 -6 4 -13 10 -16 6 -3 7 1 4 9 -7 18 -14 21 -14 7z"/>
<path d="M1820 2585 c0 -14 -3 -15 -14 -6 -12 10 -13 8 -9 -9 3 -11 9 -22 13
-25 9 -6 24 45 15 53 -3 3 -5 -3 -5 -13z"/>
<path d="M2555 2460 c-50 -51 -138 -94 -257 -126 -97 -26 -116 -34 -80 -34 39
0 165 39 238 74 63 30 144 96 144 118 0 13 -4 10 -45 -32z"/>
<path d="M4010 2339 c-74 -10 -173 -25 -220 -33 -47 -9 -100 -16 -118 -16 -19
0 -58 -7 -88 -16 -31 -9 -62 -13 -70 -10 -7 3 -14 1 -14 -4 0 -5 -8 -8 -17 -8
-10 1 -43 -6 -73 -15 -30 -9 -108 -26 -172 -38 -64 -12 -115 -26 -113 -30 3
-4 -18 -6 -46 -5 -50 3 -50 2 -71 -38 -12 -23 -23 -35 -25 -28 -3 6 -8 10 -12
7 -5 -2 -16 12 -25 33 -23 49 -75 113 -76 91 0 -9 6 -21 13 -27 7 -6 26 -39
42 -72 l29 -61 -27 -52 c-15 -29 -52 -80 -83 -115 -31 -35 -54 -65 -51 -68 2
-3 28 21 56 53 57 64 66 61 21 -7 -16 -25 -28 -52 -25 -60 4 -13 -3 -15 -38
-13 -42 3 -42 2 -9 -8 17 -5 32 -14 32 -19 0 -5 8 -11 18 -13 11 -3 11 -3 -3
-2 -11 1 -29 6 -40 10 -17 6 -17 4 4 -14 33 -30 23 -33 -27 -11 -23 11 -42 15
-42 11 0 -5 18 -16 40 -25 45 -18 53 -31 15 -24 -33 7 -32 -5 3 -19 l27 -12
-34 2 c-30 2 -38 8 -58 47 -29 55 -43 70 -43 47 0 -17 -41 -18 -282 -8 -10 1
-18 8 -18 15 0 21 -69 136 -81 136 -6 0 8 -34 31 -76 l41 -75 -43 3 c-40 3
-43 1 -48 -26 -4 -21 -12 -32 -32 -37 -21 -5 -25 -4 -21 8 10 25 -27 1 -160
-106 -124 -100 -162 -133 -391 -346 -71 -66 -160 -146 -198 -179 -38 -32 -66
-61 -64 -64 3 -2 -3 -17 -14 -32 -24 -33 -20 -77 16 -188 13 -40 24 -89 24
-110 0 -20 5 -53 10 -72 5 -19 17 -66 26 -105 9 -38 20 -79 25 -90 8 -20 38
-121 59 -202 6 -24 17 -43 24 -43 8 0 17 -11 20 -25 4 -17 11 -23 19 -18 7 4
20 6 30 4 15 -2 17 2 13 17 -7 22 19 39 30 20 5 -8 10 -6 14 6 3 10 10 18 15
18 6 1 16 8 22 17 11 14 14 14 23 1 8 -13 10 -12 10 4 0 12 5 16 15 12 10 -3
15 1 15 12 0 11 9 18 27 19 15 0 29 6 31 12 2 6 8 9 13 5 5 -3 9 0 9 5 0 6 6
11 14 11 8 0 16 5 18 10 2 6 13 12 26 13 12 0 22 8 22 15 0 8 6 12 15 8 9 -3
15 0 15 9 0 9 6 12 15 9 8 -4 15 -1 15 5 0 6 9 11 20 11 11 0 23 6 26 14 3 8
13 12 23 9 17 -4 132 61 139 79 2 4 10 8 17 8 7 0 15 5 17 10 7 21 55 20 82
-1 31 -25 43 -19 52 26 4 23 18 43 43 62 20 15 38 30 41 33 11 14 38 18 49 7
8 -8 11 -6 11 7 0 9 4 15 9 11 5 -3 16 1 24 9 8 8 17 12 21 9 3 -4 6 2 6 12 0
14 3 15 15 5 12 -10 15 -9 15 4 0 10 5 14 10 11 6 -3 10 1 10 11 0 13 3 14 15
4 10 -9 15 -9 15 -1 0 6 8 11 17 11 9 0 24 7 33 15 10 9 34 16 54 17 28 1 36
5 36 19 0 12 11 21 33 27 26 7 32 13 30 33 -1 13 0 18 3 12 9 -22 43 -14 60
12 9 14 19 24 21 21 3 -2 17 8 31 23 15 16 33 26 40 24 20 -8 55 4 80 27 17
16 26 19 41 10 15 -7 23 -6 36 6 8 9 22 13 30 10 8 -3 16 3 20 14 4 13 14 19
28 17 13 -1 21 3 20 11 -4 16 5 15 24 -4 9 -8 22 -13 30 -10 8 3 28 6 45 6 21
0 31 6 35 20 3 13 14 20 29 20 18 0 24 6 24 21 0 21 0 21 20 -2 l19 -24 1 30
c0 23 3 26 10 15 8 -12 14 -10 40 15 25 24 34 27 49 18 16 -10 17 -8 13 14 -3
18 -1 24 7 19 7 -4 11 0 11 11 0 15 2 16 10 3 9 -15 11 -12 14 20 1 8 7 14 14
13 7 -2 9 4 5 13 -5 14 -3 15 15 5 11 -6 27 -11 35 -11 21 0 30 30 15 48 -11
13 -10 14 6 5 15 -8 24 -7 40 8 14 14 29 18 48 14 24 -6 28 -3 34 21 6 24 8
25 19 11 13 -18 30 -24 20 -7 -3 6 0 10 8 10 21 0 62 40 59 57 -2 9 2 13 10
11 7 -3 24 6 37 19 16 14 29 19 35 13 6 -6 16 -1 28 12 10 12 21 19 24 15 3
-3 14 2 24 11 11 8 29 17 42 19 12 2 30 11 39 21 32 31 48 42 61 42 15 1 48
24 48 34 0 14 25 33 38 28 6 -2 12 1 12 7 0 6 9 11 20 11 13 0 18 5 14 15 -7
18 7 20 23 4 8 -8 13 -5 18 9 4 13 12 19 21 15 13 -5 19 8 14 32 -1 5 7 1 18
-8 22 -20 36 -10 21 13 -15 25 -10 34 9 17 25 -23 35 -21 27 4 -6 18 -5 19 13
10 29 -16 35 -14 29 9 -6 24 -1 25 19 5 17 -17 47 -9 40 11 -3 8 1 14 9 14 8
0 -13 28 -48 63 -73 74 -167 181 -219 250 -72 95 -209 237 -236 243 -15 4 -34
12 -42 19 -12 9 -44 8 -150 -6z m-12 -81 c-3 -7 -12 -14 -21 -16 -12 -2 -15 1
-11 12 7 19 38 22 32 4z m122 -28 c-34 -22 -56 0 -28 28 10 10 16 9 28 -3 13
-14 13 -17 0 -25z m60 -12 c0 -17 -3 -18 -15 -8 -8 7 -15 19 -15 26 0 8 6 11
15 8 8 -4 15 -15 15 -26z m-263 -25 c9 -13 13 -27 9 -30 -6 -7 -66 45 -66 58
0 15 42 -5 57 -28z m73 23 c0 -3 -4 -8 -10 -11 -5 -3 -10 -1 -10 4 0 6 5 11
10 11 6 0 10 -2 10 -4z m150 -17 c0 -5 -7 -9 -15 -9 -9 0 -12 6 -9 15 6 15 24
11 24 -6z m-412 -16 c4 -28 -12 -30 -31 -3 -8 11 -17 17 -22 12 -5 -4 -5 -1
-1 6 12 21 51 10 54 -15z m366 11 c9 -23 8 -24 -14 -24 -11 0 -20 2 -20 4 0
12 13 36 20 36 4 0 11 -7 14 -16z m-524 -24 c0 -11 -4 -20 -9 -20 -14 0 -23
18 -16 30 10 17 25 11 25 -10z m617 4 c1 -5 -2 -16 -7 -24 -12 -20 -33 0 -24
24 7 17 25 17 31 0z m-682 -4 c-3 -5 -10 -10 -16 -10 -5 0 -9 5 -9 10 0 6 7
10 16 10 8 0 12 -4 9 -10z m630 -9 c7 -12 -12 -24 -25 -16 -11 7 -4 25 10 25
5 0 11 -4 15 -9z m-755 -36 c0 -13 -14 -35 -23 -35 -12 0 -47 30 -47 41 0 12
33 16 53 7 9 -5 17 -10 17 -13z m160 6 c0 -4 -9 -7 -20 -8 -11 -1 -20 4 -20
12 0 8 7 11 20 8 11 -3 20 -8 20 -12z m-444 -39 c27 -26 68 -69 91 -94 43 -46
43 -47 28 -82 -19 -44 -37 -57 -31 -22 3 15 1 24 -5 21 -5 -4 -7 -11 -4 -16 4
-5 2 -9 -2 -9 -5 0 -14 -9 -20 -19 -11 -17 -10 -19 8 -16 11 2 17 0 14 -6 -4
-5 -11 -6 -17 -3 -6 4 -8 -1 -4 -14 10 -29 -21 -77 -40 -62 -9 9 -15 6 -24
-10 -6 -11 -15 -18 -20 -15 -5 3 -11 1 -15 -4 -3 -6 3 -8 15 -6 11 2 20 0 20
-5 0 -13 -40 -77 -41 -67 -1 4 -2 11 -3 16 0 5 -3 11 -6 13 -3 1 -4 1 -2 -1 4
-7 -30 -41 -41 -41 -6 0 -8 3 -4 6 3 3 -5 18 -18 32 -13 14 -22 29 -19 34 3 4
-2 5 -10 2 -22 -9 -20 -1 14 49 17 25 30 49 30 53 0 5 -14 -12 -30 -38 -17
-27 -35 -48 -41 -48 -7 0 -6 8 3 23 8 12 21 33 29 47 8 13 21 30 29 37 13 11
13 12 -3 7 -10 -4 -27 -24 -37 -45 -20 -39 -40 -59 -40 -40 0 6 -7 11 -16 11
-8 0 -12 5 -9 10 4 6 1 18 -7 27 -8 10 -8 14 -1 10 7 -4 14 1 18 13 3 11 11
20 17 20 6 0 8 3 5 6 -4 4 -14 1 -23 -7 -16 -13 -16 -12 -5 9 7 12 15 20 19
18 22 -14 67 70 51 95 -7 12 -9 11 -10 -1 -1 -8 -1 -22 0 -30 2 -13 1 -13 -9
0 -8 12 -9 9 -5 -11 4 -17 1 -30 -9 -38 -18 -15 -20 -8 -6 20 7 13 7 19 0 19
-5 0 -2 12 8 28 37 59 117 172 123 172 3 0 28 -22 55 -48z m729 34 c35 9 29
-4 -35 -73 -25 -26 -70 -77 -100 -113 -30 -35 -63 -72 -72 -82 -10 -10 -18
-23 -18 -29 0 -7 -13 15 -30 47 -16 32 -30 66 -30 75 0 8 16 34 36 58 36 41
58 48 60 20 1 -8 2 -21 3 -29 1 -8 7 1 14 20 11 31 65 80 89 80 5 0 7 -15 4
-32 l-7 -33 23 40 c12 22 21 47 20 55 -2 12 -1 12 6 2 6 -9 18 -11 37 -6z
m-330 -36 c-3 -5 -14 -6 -25 -3 -20 5 -26 23 -13 36 8 9 44 -23 38 -33z m96
25 c-1 -15 -24 -12 -29 3 -3 9 2 13 12 10 10 -1 17 -7 17 -13z m-451 -26 c0
-5 7 -9 15 -9 8 0 15 -7 15 -15 0 -11 -8 -8 -30 12 -34 30 -37 35 -15 27 8 -4
15 -10 15 -15z m1140 11 c0 -6 -9 -20 -19 -31 -23 -25 -65 -133 -58 -151 6
-16 46 69 47 99 0 18 5 22 24 21 18 -2 23 -7 20 -22 -2 -11 -11 -24 -19 -29
-12 -6 -14 -17 -10 -37 5 -22 1 -31 -15 -43 -27 -18 -76 -3 -84 26 -7 27 11
67 29 67 12 0 15 7 13 24 -2 17 7 35 26 55 31 32 46 39 46 21z m-730 -20 c-19
-13 -30 -13 -30 0 0 6 10 10 23 10 18 0 19 -2 7 -10z m495 -6 c11 -8 21 -19
21 -24 1 -6 2 -14 3 -19 0 -5 9 -7 20 -4 20 5 41 -29 22 -35 -19 -6 -12 -32 8
-32 19 0 31 -25 24 -47 -6 -16 -23 -17 -23 -1 0 15 -77 133 -98 150 -19 15
-18 14 43 -79 25 -37 45 -77 45 -88 -1 -19 -1 -19 -14 -2 -7 9 -18 17 -23 17
-5 0 -18 9 -28 20 -14 15 -15 23 -6 33 8 11 6 18 -9 32 -11 10 -20 14 -20 9 0
-5 -4 -2 -9 6 -5 8 -7 26 -6 40 2 14 4 28 4 33 2 12 24 8 46 -9z m-200 -16 c6
-4 -3 -8 -18 -8 -23 0 -26 2 -15 14 7 8 15 11 18 8 3 -4 10 -10 15 -14z m-635
-19 c0 -11 -4 -17 -10 -14 -5 3 -10 15 -10 26 0 11 5 17 10 14 6 -3 10 -15 10
-26z m30 -23 c0 -12 -3 -26 -6 -29 -13 -13 -21 3 -16 32 5 35 22 32 22 -3z
m77 -46 c-2 -84 -20 -88 -22 -4 -1 64 1 74 15 74 5 0 8 -31 7 -70z m-35 31 c2
-16 0 -39 -4 -52 -7 -17 -4 -30 11 -49 24 -30 101 -159 101 -168 0 -4 -5 0
-10 8 -5 9 -31 17 -66 20 -51 4 -60 9 -86 41 l-30 37 22 51 c13 29 29 51 37
51 10 0 13 6 8 18 -8 20 -8 20 -6 50 2 32 18 27 23 -7z m71 6 c5 -15 2 -54
-13 -152 -1 -5 -4 -2 -8 7 -9 23 -3 158 8 158 4 0 10 -6 13 -13z m1068 -4 c2
1 -2 -4 -10 -10 -8 -7 -20 -13 -25 -12 -6 0 -6 3 1 5 7 3 9 13 6 22 -6 14 -4
15 9 5 8 -7 17 -12 19 -10z m-1025 -20 c-3 -16 -11 -56 -17 -91 -6 -34 -16
-65 -22 -69 -6 -4 -8 3 -3 18 3 13 9 52 13 87 3 34 10 62 15 62 5 0 6 5 3 10
-3 6 -1 10 5 10 7 0 10 -10 6 -27z m401 21 c-3 -3 -12 -4 -19 -1 -8 3 -5 6 6
6 11 1 17 -2 13 -5z m139 -2 c16 -10 27 -49 15 -56 -13 -9 -41 22 -41 45 0 20
8 23 26 11z m434 -13 c0 -6 -4 -7 -10 -4 -5 3 -10 11 -10 16 0 6 5 7 10 4 6
-3 10 -11 10 -16z m-934 -4 c3 -8 -3 -43 -15 -77 -11 -35 -23 -80 -27 -101 -4
-27 -9 -35 -15 -25 -5 7 -6 21 -3 30 3 9 7 27 9 40 27 146 37 172 51 133z
m394 -5 c0 -5 -21 -10 -46 -10 -25 0 -43 4 -40 8 7 12 86 14 86 2z m620 -22
c0 -13 -23 -5 -28 10 -2 7 2 10 12 6 9 -3 16 -11 16 -16z m-641 -12 c-8 -8
-88 -10 -95 -3 -4 4 17 7 46 7 29 0 51 -2 49 -4z m565 -11 c-4 -8 -10 -12 -15
-9 -14 8 -10 24 6 24 9 0 12 -6 9 -15z m35 -6 c-16 -10 -23 -4 -14 10 3 6 11
8 17 5 6 -4 5 -9 -3 -15z m54 -14 c-3 -8 -12 -15 -19 -15 -12 0 -12 4 -4 20
12 23 32 18 23 -5z m-953 3 c0 22 19 13 26 -13 3 -14 11 -22 16 -19 6 4 7 -2
3 -16 -4 -13 -3 -20 2 -17 5 3 6 -18 2 -51 -4 -31 -8 -66 -8 -77 -1 -14 -4
-16 -13 -7 -8 8 -17 8 -30 1 -10 -5 -24 -7 -30 -3 -6 4 -8 3 -4 -4 9 -16 -10
-24 -22 -9 -6 6 -15 28 -21 47 l-11 35 5 -35 c4 -26 3 -32 -6 -23 -14 14 -4
103 16 148 13 29 13 28 16 -40 l3 -70 5 80 6 80 8 -80 c10 -97 16 -129 24
-121 7 7 4 149 -3 186 -4 20 -3 22 5 10 7 -10 11 -11 11 -2z m320 0 c0 -5 -33
-7 -72 -6 -63 1 -67 2 -28 7 61 8 100 8 100 -1z m540 -18 c0 -5 -2 -10 -4 -10
-3 0 -8 5 -11 10 -3 6 -1 10 4 10 6 0 11 -4 11 -10z m-554 -17 c-8 -8 -156 -9
-156 -1 0 4 33 8 73 10 72 3 93 1 83 -9z m604 2 c0 -1 -8 -5 -18 -7 -11 -3
-19 0 -19 7 0 7 8 10 19 7 10 -2 18 -6 18 -7z m100 0 c10 -12 10 -15 -3 -15
-8 0 -20 7 -27 15 -10 12 -10 15 3 15 8 0 20 -7 27 -15z m-436 -11 c28 -11 17
-20 -46 -38 -92 -26 -95 -27 -80 -33 8 -3 39 2 70 12 88 26 92 27 92 17 0 -15
-48 -43 -55 -32 -12 19 -38 11 -32 -9 4 -15 -2 -22 -26 -30 -40 -14 -47 -14
-47 4 0 18 -11 19 -30 3 -12 -11 -12 -10 -2 4 17 21 -3 35 -24 17 -24 -20 -26
-4 -3 25 26 33 82 63 87 47 6 -17 42 -13 42 4 0 15 26 20 54 9z m102 -9 c-3
-23 -13 -27 -35 -15 -26 13 -18 30 14 30 15 0 22 -5 21 -15z m92 -1 c30 -21
17 -38 -14 -18 -23 16 -32 34 -16 34 4 0 18 -7 30 -16z m-560 -9 c-10 -8 -88
-14 -88 -6 0 6 17 11 38 13 34 3 58 0 50 -7z m77 -3 c-3 -3 -11 0 -18 7 -9 10
-8 11 6 5 10 -3 15 -9 12 -12z m715 -47 c0 -26 -4 -33 -15 -29 -20 8 -29 42
-15 59 18 21 30 9 30 -30z m-660 15 c-12 -11 -27 -17 -33 -13 -6 3 -7 1 -3 -5
7 -11 -76 -55 -129 -68 -14 -3 -23 -10 -20 -14 3 -5 -5 -6 -17 -3 -19 4 -21 3
-8 -7 13 -10 12 -11 -4 -6 -11 4 -23 1 -27 -5 -5 -9 -12 -8 -24 4 -15 16 -15
17 2 17 10 1 34 10 53 21 26 15 29 18 10 13 -14 -4 -32 -9 -40 -12 -13 -5 -13
-4 0 14 14 18 14 18 -2 5 -10 -7 -16 -17 -13 -20 2 -4 -2 -8 -10 -8 -8 0 -15
2 -15 4 0 7 29 73 32 73 2 0 21 7 43 15 24 8 78 14 134 15 l94 0 -23 -20z
m428 -20 c33 -22 62 -50 65 -62 8 -28 5 -30 -24 -19 -13 5 -20 10 -16 10 20 2
-16 41 -38 41 -17 0 -29 9 -40 30 -27 51 -24 51 53 0z m-83 11 c-3 -5 0 -13 7
-17 8 -5 4 -10 -10 -15 -31 -12 -32 -70 -2 -62 14 4 20 0 20 -11 0 -9 -6 -16
-13 -16 -22 0 -37 -22 -27 -40 6 -12 3 -29 -10 -55 -15 -29 -21 -34 -26 -22
-3 9 -3 20 0 25 3 5 -6 19 -19 30 -28 25 -32 56 -10 78 11 12 12 20 4 35 -8
16 -7 26 6 45 24 37 28 29 20 -33 -12 -89 -13 -113 -3 -119 4 -3 8 10 9 28 0
33 5 65 13 103 2 11 5 28 5 38 1 10 9 17 22 17 11 0 18 -4 14 -9z m173 -4 c18
-12 15 -24 -8 -30 -11 -3 -18 -2 -15 3 3 4 -2 10 -10 14 -8 3 -15 10 -15 16 0
11 28 9 48 -3z m-504 -24 c-18 -76 -94 -163 -142 -163 -22 0 -24 2 -12 10 11
8 7 9 -15 4 -27 -7 -29 -6 -16 9 7 10 19 17 27 17 7 0 16 5 19 10 4 6 -16 1
-44 -10 -74 -29 -61 -3 20 40 36 20 88 52 115 72 27 20 50 37 52 37 1 1 0 -11
-4 -26z m216 -23 c-24 -15 -37 -11 -16 5 11 8 22 12 25 9 3 -3 -1 -9 -9 -14z
m-995 -85 c-19 -36 -35 -73 -35 -81 0 -8 -4 -14 -10 -14 -14 0 -13 23 2 38 9
9 9 12 -1 12 -7 0 -9 5 -5 12 4 7 3 8 -4 4 -6 -4 -9 -13 -6 -20 3 -8 -1 -17
-8 -22 -7 -4 -10 -4 -6 1 4 4 4 13 -1 19 -5 7 -1 18 10 30 17 18 19 18 25 2 5
-13 13 -6 35 33 31 54 35 66 19 56 -6 -4 -7 1 -3 11 5 14 7 14 14 1 6 -10 -3
-37 -26 -82z m-653 61 c6 -8 8 -8 8 0 0 8 18 10 53 8 28 -2 71 -4 94 -5 34 -1
41 -4 36 -17 -4 -9 3 -6 14 8 12 14 25 22 28 18 4 -4 -8 -23 -28 -43 -19 -19
-31 -35 -26 -35 5 0 3 -11 -3 -25 -9 -21 -14 -23 -27 -13 -13 10 -14 10 -4 -2
8 -9 9 -19 2 -32 -5 -10 -8 -18 -5 -18 9 0 64 98 59 104 -4 3 4 6 16 6 14 0
21 5 18 13 -6 17 11 47 27 47 15 0 36 -42 36 -73 0 -12 7 -42 16 -67 9 -27 13
-58 9 -78 -4 -23 -3 -32 4 -27 7 4 11 -7 11 -29 0 -41 -2 -42 -24 -20 -10 10
-16 11 -16 4 0 -7 -7 -9 -17 -5 -10 3 -47 8 -83 9 -161 8 -199 13 -216 27 -11
9 -15 9 -10 2 5 -9 -1 -13 -18 -13 -14 0 -26 5 -26 12 0 6 -6 4 -13 -5 -18
-26 -74 -13 -71 16 1 12 3 24 4 27 4 9 7 25 9 45 1 19 2 19 12 2 5 -9 7 -22 4
-27 -3 -6 -4 -10 -1 -10 3 0 11 10 17 23 6 12 8 19 4 15 -18 -17 -32 27 -28
91 2 36 6 71 8 78 5 15 117 5 127 -11z m1818 -1 c11 -13 10 -14 -4 -9 -9 3
-16 10 -16 15 0 13 6 11 20 -6z m-973 -1 c-3 -3 -12 -4 -19 -1 -8 3 -5 6 6 6
11 1 17 -2 13 -5z m667 -10 c4 -10 1 -14 -6 -12 -15 5 -23 28 -10 28 5 0 13
-7 16 -16z m-609 -14 c-15 -7 -9 -9 25 -9 25 -1 51 -5 59 -10 18 -12 5 -31
-22 -31 -18 0 -19 2 -7 10 9 6 10 10 3 10 -6 0 -15 -4 -18 -10 -3 -5 -21 -9
-38 -9 l-32 2 35 7 c19 4 28 8 20 10 -8 1 -19 1 -25 0 -5 -1 -45 -5 -87 -9
-104 -9 -106 9 -3 22 25 3 23 4 -10 6 -68 2 -19 21 55 20 45 0 59 -3 45 -9z
m195 -16 c0 -8 -5 -12 -10 -9 -6 4 -8 11 -5 16 9 14 15 11 15 -7z m55 -25
c-10 -15 -25 -10 -19 6 4 8 10 12 15 9 5 -3 7 -10 4 -15z m341 -16 c36 -27 42
-39 22 -46 -8 -2 -1 -10 14 -17 15 -7 34 -23 42 -36 14 -20 14 -23 -1 -28 -12
-5 -13 -9 -3 -21 17 -21 -72 11 -173 62 l-77 39 30 18 c17 9 38 29 47 42 19
30 48 27 99 -13z m121 -9 c8 -20 -10 -36 -30 -28 -11 4 -17 17 -17 35 0 27 2
29 21 19 11 -6 23 -18 26 -26z m-1221 -3 c-1 -16 -5 -26 -11 -23 -5 3 -4 -1 2
-10 7 -8 11 -18 8 -22 -3 -3 -1 -3 4 1 5 5 14 24 20 43 l11 35 -5 -40 c-4 -29
-3 -36 4 -25 6 8 11 11 12 5 0 -5 4 1 8 15 7 25 7 25 13 3 6 -24 -29 -104 -48
-110 -11 -4 -44 65 -44 92 0 16 18 65 23 65 2 0 4 -13 3 -29z m149 11 c1 -4 7
-18 14 -30 11 -21 11 -23 -6 -20 -10 2 -17 11 -15 21 2 9 -2 17 -7 17 -6 0 -8
7 -4 15 5 15 18 12 18 -3z m640 9 c3 -5 1 -12 -5 -16 -5 -3 -10 1 -10 9 0 18
6 21 15 7z m-665 -44 c0 -6 -9 -2 -20 8 -11 10 -20 23 -20 28 0 6 9 2 20 -8
11 -10 20 -23 20 -28z m535 34 c3 -5 -5 -12 -17 -14 -19 -4 -18 -5 6 -6 24 -1
27 -3 16 -16 -18 -21 -47 -19 -53 5 -7 27 34 53 48 31z m55 0 c0 -6 -4 -13
-10 -16 -5 -3 -10 1 -10 9 0 9 5 16 10 16 6 0 10 -4 10 -9z m-160 -10 c0 -5
-15 -14 -32 -21 -18 -7 -43 -17 -56 -23 -24 -11 -71 -11 -107 0 l-20 6 20 8
c17 7 17 8 -7 8 -15 1 -29 5 -32 10 -3 4 32 7 78 6 67 -2 127 3 154 14 1 1 2
-3 2 -8z m220 -23 c0 -5 -9 -4 -20 2 -11 6 -18 15 -14 21 6 11 34 -7 34 -23z
m718 -14 c-10 -10 -28 6 -28 24 0 15 1 15 17 -1 9 -9 14 -19 11 -23z m-728
-16 c1 -21 -34 -1 -43 25 -6 17 -6 17 18 0 13 -10 25 -21 25 -25z m97 22 c35
-21 57 -56 68 -110 l7 -35 -31 42 c-17 24 -49 55 -71 69 -67 44 -42 76 27 34z
m-1551 1 c-4 -5 0 -12 6 -14 10 -4 9 -8 -2 -17 -12 -9 -11 -10 7 -5 19 5 22 3
17 -12 -6 -16 -5 -15 9 2 15 18 19 18 16 -1 -2 -16 27 -22 42 -8 15 13 16 12
11 -11 -8 -42 -72 -76 -78 -41 -3 20 -21 36 -41 36 -7 0 -14 5 -14 10 -1 6 -2
16 -3 23 -3 17 13 47 25 47 6 0 8 -4 5 -9z m1240 -20 c-19 -20 -60 -121 -52
-128 2 -2 9 13 16 34 13 41 58 113 70 113 16 0 19 -33 5 -58 -17 -32 -19 -25
-5 15 l10 28 -20 -25 c-20 -26 -25 -45 -12 -53 4 -2 2 -2 -5 -1 -16 4 -45 -73
-37 -98 4 -15 3 -18 -6 -13 -10 6 -12 0 -7 -26 5 -27 4 -30 -4 -16 -6 10 -9
34 -7 52 2 19 0 31 -4 29 -4 -3 -8 -19 -8 -36 0 -17 -3 -29 -6 -26 -3 3 -5 23
-5 44 -1 83 23 150 63 178 28 20 36 12 14 -13z m422 -27 c11 -7 48 -134 38
-131 -6 2 -20 29 -31 60 -11 31 -26 62 -33 69 -17 17 -15 7 8 -53 12 -28 19
-54 16 -56 -11 -11 -24 9 -29 44 -4 21 -15 54 -25 74 l-18 36 35 -20 c20 -11
37 -22 39 -23z m-288 14 c0 -16 -3 -19 -11 -11 -6 6 -8 16 -5 22 11 17 16 13
16 -11z m-3 -84 c4 -36 1 -46 -27 -78 -18 -20 -35 -35 -37 -32 -2 2 -20 -12
-38 -32 l-34 -37 5 48 c5 54 59 195 82 214 13 10 18 8 29 -15 8 -15 17 -46 20
-68z m33 86 c0 -5 -4 -10 -10 -10 -5 0 -10 5 -10 10 0 6 5 10 10 10 6 0 10 -4
10 -10z m113 -12 c72 -52 125 -144 99 -170 -9 -9 -16 -6 -29 12 -20 29 -93
112 -108 122 -5 4 -6 10 -3 13 4 4 31 -15 60 -41 41 -37 45 -40 18 -10 -36 39
-99 89 -86 68 4 -7 2 -12 -3 -12 -14 0 -14 13 1 28 16 16 15 16 51 -10z
m-1430 -3 c-3 -9 -8 -14 -10 -11 -3 3 -2 9 2 15 9 16 15 13 8 -4z m990 -4 c21
-5 37 -5 37 0 0 5 5 9 11 9 8 0 8 -4 0 -14 -12 -14 -53 -13 -95 4 -28 12 -1
12 47 1z m362 -21 c8 -16 37 -51 63 -77 26 -26 36 -38 22 -28 -24 19 -24 18 1
-7 15 -14 25 -29 22 -32 -4 -3 -1 -7 5 -7 27 -3 31 -4 39 -13 5 -5 3 -6 -4 -2
-7 4 -13 2 -13 -4 0 -14 -76 38 -113 78 -16 16 -35 47 -42 68 -8 22 -14 31
-15 21 0 -24 17 -56 48 -89 36 -39 13 -35 -31 6 -40 37 -47 68 -20 98 21 23
20 23 38 -12z m-284 -38 c-10 -63 -11 -65 -42 -54 -20 8 -29 4 -56 -27 -33
-36 -33 -36 -29 -8 5 31 -1 34 -20 10 -13 -17 -14 -17 -7 2 4 11 16 28 28 37
20 18 40 24 32 11 -3 -5 6 -8 19 -8 17 0 23 4 19 14 -5 12 53 86 62 78 1 -2
-1 -27 -6 -55z m573 14 c3 -13 9 -32 13 -42 13 -34 -17 -3 -37 39 -24 50 -24
50 -1 38 10 -6 21 -21 25 -35z m-674 19 c40 -10 47 -13 25 -14 -16 0 -43 6
-60 14 -38 17 -33 17 35 0z m723 -55 c19 -49 7 -53 -16 -5 -19 41 -20 45 -9
45 5 0 16 -18 25 -40z m-842 -57 c-6 -24 -9 -29 -10 -15 -1 12 -6 22 -12 22
-5 0 -9 8 -7 18 1 9 -1 23 -6 31 -5 8 -4 16 5 22 23 14 41 -32 30 -78z m73 72
c20 -15 20 -15 0 -32 -31 -28 -44 -26 -44 5 0 44 12 51 44 27z m804 -21 l2
-29 -14 25 c-19 31 -20 43 -3 38 6 -3 13 -18 15 -34z m-938 7 c0 -11 -4 -22
-9 -25 -12 -8 -34 21 -26 34 11 17 35 11 35 -9z m360 -21 c-16 -40 -23 -33 -9
9 6 18 14 30 17 27 2 -3 -1 -19 -8 -36z m625 20 c3 -5 -1 -10 -9 -10 -8 0 -18
5 -21 10 -3 6 1 10 9 10 8 0 18 -4 21 -10z m45 -10 c0 -5 -4 -10 -10 -10 -5 0
-10 5 -10 10 0 6 5 10 10 10 6 0 10 -4 10 -10z m-1090 -21 c26 -15 36 -27 32
-37 -3 -10 -1 -13 6 -8 6 3 13 2 16 -3 4 -5 -1 -8 -10 -7 -8 1 -19 9 -24 16
-5 8 -12 11 -16 8 -4 -4 1 -20 11 -35 18 -28 18 -28 -2 -10 -11 9 -22 14 -26
11 -7 -7 -37 49 -37 71 0 20 5 19 50 -6z m82 -8 c2 -17 1 -28 -4 -25 -8 5 -12
54 -4 54 2 0 6 -13 8 -29z m-139 -39 c5 -30 4 -32 -16 -26 -39 12 -49 46 -19
63 21 12 29 5 35 -37z m699 9 c39 -28 49 -42 58 -83 7 -26 9 -60 6 -74 -9 -35
-63 -107 -71 -94 -11 18 -24 11 -44 -27 -28 -54 -34 -29 -27 119 5 128 14 201
25 196 3 -2 27 -18 53 -37z m-1507 19 c3 -5 3 -15 -1 -21 -6 -11 -23 6 -24 24
0 10 18 9 25 -3z m1173 -2 c19 -19 14 -34 -10 -34 -13 0 -34 -4 -47 -8 l-25
-8 25 30 c26 34 39 38 57 20z m-1208 -17 c0 -3 -9 -12 -20 -19 -17 -10 -21
-10 -27 4 -3 9 0 20 7 24 14 8 40 3 40 -9z m1460 -1 c-6 -11 -16 -20 -22 -20
-6 0 -3 9 7 20 10 11 20 20 22 20 2 0 -1 -9 -7 -20z m-1400 -35 c0 -17 -2 -18
-24 -9 -23 9 -20 24 4 24 11 0 20 -7 20 -15z m100 -18 c0 -17 2 -19 9 -7 6 8
7 18 5 22 -3 4 0 8 6 8 6 0 8 -10 4 -24 -3 -14 -1 -27 6 -31 9 -5 10 -1 5 14
-4 12 -2 21 4 21 6 0 11 -7 11 -15 0 -8 14 -28 30 -45 18 -19 27 -36 23 -43
-12 -19 -14 -47 -3 -47 5 0 7 -7 3 -16 -5 -13 -7 -13 -14 -2 -6 8 -9 1 -9 -22
l-1 -35 -24 28 c-14 15 -25 34 -25 40 0 7 -15 14 -32 15 -38 3 -45 8 -51 42
l-4 25 -2 -26 c0 -15 -7 -32 -15 -38 -12 -10 -15 -7 -14 21 1 38 25 81 41 71
6 -3 7 -1 3 5 -9 15 18 55 29 44 4 -4 5 1 2 11 -4 11 -3 16 3 12 6 -3 10 -16
10 -28z m183 19 c25 -19 21 -28 -10 -24 -17 2 -29 10 -31 21 -4 20 16 22 41 3z
m-343 -6 c0 -5 -4 -10 -10 -10 -5 0 -10 5 -10 10 0 6 5 10 10 10 6 0 10 -4 10
-10z m1234 4 c26 -10 18 -34 -15 -48 -34 -14 -83 -10 -72 7 4 6 0 8 -9 5 -9
-4 -15 0 -15 8 0 8 2 12 5 9 3 -2 14 2 26 10 22 16 54 19 80 9z m201 -19 c-16
-14 -43 -29 -60 -35 -34 -12 -27 -4 30 34 50 33 70 33 30 1z m-1485 0 c-12
-15 -30 -12 -30 6 0 5 10 9 21 9 18 0 19 -2 9 -15z m673 -13 c20 -18 23 -42 4
-42 -20 0 -44 22 -52 47 -5 19 -3 22 12 16 10 -3 26 -13 36 -21z m223 8 c22
-9 25 -13 14 -20 -8 -5 -18 -6 -22 -4 -12 8 -9 -11 4 -24 9 -9 8 -12 -4 -12
-9 0 -23 7 -32 15 -8 8 -19 15 -25 15 -17 0 -13 28 6 39 10 5 20 8 24 5 3 -2
19 -8 35 -14z m254 -10 c-8 -5 -17 -7 -19 -4 -3 3 1 9 9 14 8 5 17 7 19 4 3
-3 -1 -9 -9 -14z m-1060 -10 c0 -5 -5 -12 -11 -16 -12 -7 -31 15 -23 28 6 9
34 -1 34 -12z m1875 2 c-3 -3 -11 0 -18 7 -9 10 -8 11 6 5 10 -3 15 -9 12 -12z
m-1930 -10 c0 -18 -20 -15 -23 4 -3 10 1 15 10 12 7 -3 13 -10 13 -16z m253
-7 c-3 -3 -9 2 -12 12 -6 14 -5 15 5 6 7 -7 10 -15 7 -18z m1207 15 c-7 -11
-91 -70 -100 -70 -14 0 10 24 53 51 50 31 56 34 47 19z m394 1 c14 -9 9 -41
-7 -41 -15 0 -34 28 -27 40 8 12 16 13 34 1z m-820 -15 c10 -12 8 -13 -8 -9
-12 3 -18 9 -15 14 7 12 10 11 23 -5z m-1071 -14 c2 -7 -2 -10 -12 -6 -9 3
-16 11 -16 16 0 13 23 5 28 -10z m1317 -9 c11 -30 -12 -37 -55 -18 l-41 19 33
11 c38 13 54 10 63 -12z m184 4 c-2 -2 -23 -18 -47 -36 -24 -19 -45 -31 -48
-28 -6 5 89 76 95 71 2 -2 2 -5 0 -7z m-999 -36 c-32 -58 -73 -100 -95 -96
-11 2 -28 4 -38 4 -33 2 3 71 36 71 6 0 3 -8 -5 -17 -8 -10 -18 -25 -23 -33
-4 -8 4 -2 18 15 13 16 23 35 20 41 -2 6 3 14 12 18 11 4 14 2 8 -7 -4 -6 7 0
24 14 17 14 38 26 46 26 14 0 13 -5 -3 -36z m555 18 c-8 -12 -32 -12 -40 1 -3
6 1 7 9 4 9 -3 16 -1 16 6 0 6 5 8 10 5 6 -4 8 -11 5 -16z m-518 -31 c1 -43 1
-43 -6 -8 -6 31 -5 50 3 50 1 0 3 -19 3 -42z m312 33 c25 -16 20 -37 -10 -48
-25 -10 -31 -9 -40 8 -18 34 16 61 50 40z m241 5 c0 -2 -7 -9 -15 -16 -13 -11
-14 -10 -9 4 5 14 24 23 24 12z m203 -54 c11 -12 16 -25 13 -30 -7 -12 -60 -1
-100 20 -27 14 -28 15 -7 21 11 3 19 1 15 -4 -3 -5 0 -9 5 -9 15 0 14 15 -1
28 -13 10 -16 11 -40 13 -7 0 -4 4 7 8 23 10 79 -15 108 -47z m-356 42 c-3 -3
-12 -4 -19 -1 -8 3 -5 6 6 6 11 1 17 -2 13 -5z m554 -27 c-16 -16 -26 0 -10
19 9 11 15 12 17 4 2 -6 -1 -17 -7 -23z m-976 -17 c-4 -19 -3 -30 4 -30 18 0
12 -46 -9 -71 -10 -13 -19 -19 -20 -13 0 5 4 14 9 20 15 16 23 54 12 54 -6 0
-10 -3 -10 -7 4 -25 -2 -43 -13 -37 -7 4 -8 3 -4 -4 3 -6 -3 -16 -14 -22 -20
-11 -20 -9 4 37 14 26 26 52 26 58 -1 5 -12 -11 -26 -37 -13 -27 -29 -48 -34
-48 -24 0 -16 22 25 66 25 26 45 51 45 56 0 4 3 8 6 8 3 0 3 -13 -1 -30z m528
23 c-7 -2 -19 -2 -25 0 -7 3 -2 5 12 5 14 0 19 -2 13 -5z m-1208 -24 c8 -23 1
-34 -14 -24 -13 8 -15 45 -2 45 5 0 13 -9 16 -21z m141 9 c-6 10 -1 11 21 6
61 -15 101 -44 88 -65 -4 -6 -19 -1 -38 14 -53 39 -64 42 -23 6 21 -19 37 -40
35 -46 -4 -12 -109 76 -109 91 0 5 8 2 17 -5 12 -10 15 -11 9 -1z m1799 3 c7
-12 -12 -24 -25 -16 -11 7 -4 25 10 25 5 0 11 -4 15 -9z m-855 -11 c0 -5 -7
-10 -15 -10 -8 0 -15 -5 -15 -11 0 -7 10 -9 25 -7 13 3 22 1 19 -3 -3 -5 -12
-9 -20 -9 -8 0 -14 -4 -14 -9 0 -17 -63 -22 -79 -6 -19 18 -6 34 42 52 41 15
57 16 57 3z m184 -6 c3 -8 2 -12 -4 -9 -6 3 -10 10 -10 16 0 14 7 11 14 -7z
m343 -21 c-3 -3 -11 -2 -17 2 -8 5 -7 11 2 22 12 15 13 14 16 -1 2 -10 1 -20
-1 -23z m44 -6 c-16 -16 -26 0 -10 19 9 11 15 12 17 4 2 -6 -1 -17 -7 -23z
m-1493 -16 c32 -30 42 -47 42 -70 0 -24 -3 -29 -17 -25 -15 5 -15 3 1 -10 19
-15 19 -16 1 -16 -10 0 -28 8 -39 18 -20 16 -20 16 -7 0 11 -15 11 -18 -1 -18
-23 0 -48 34 -54 71 -6 34 9 89 23 89 5 0 27 -18 51 -39z m1183 -3 c6 -12 6
-18 -1 -18 -5 0 -10 7 -10 15 0 13 -12 19 -32 16 -4 0 -5 6 -1 14 6 18 27 5
44 -27z m-201 28 c0 -2 -7 -7 -16 -10 -8 -3 -12 -2 -9 4 6 10 25 14 25 6z
m-315 -16 c4 -6 10 -8 15 -5 5 3 11 1 14 -4 4 -5 2 -12 -4 -16 -12 -7 -50 12
-50 25 0 13 17 13 25 0z m588 0 c25 0 44 -45 27 -65 -22 -27 -48 -18 -70 25
-25 50 -25 54 3 46 12 -3 30 -6 40 -6z m-1040 -6 c4 -4 -2 -19 -13 -34 -11
-16 -21 -36 -21 -47 -1 -16 -2 -16 -6 0 -2 9 -9 17 -14 17 -6 0 -8 4 -5 9 4 5
2 19 -2 32 -7 19 -10 20 -15 6 -4 -10 -3 -17 1 -17 4 0 7 -14 8 -30 1 -29 0
-30 -17 -14 -11 10 -22 14 -26 11 -3 -4 -1 -7 5 -7 6 0 17 -10 23 -22 11 -20
10 -21 -3 -10 -13 10 -17 10 -22 -5 -4 -10 -4 -14 0 -11 6 7 34 -15 34 -27 0
-8 -57 23 -65 35 -15 24 -13 55 3 71 9 10 23 25 30 34 13 15 92 22 105 9z
m975 -34 c6 17 32 -38 32 -66 0 -30 -32 -32 -60 -4 -18 18 -21 24 -20 45 0 3
-7 19 -15 35 l-15 30 37 -26 c24 -16 39 -21 41 -14z m-244 -22 c-16 -18 -19
-25 -8 -15 12 10 28 17 35 15 8 -2 13 4 13 14 -1 10 2 16 6 13 5 -3 11 1 13 7
3 7 6 -1 6 -19 1 -23 -7 -40 -26 -58 -42 -39 -99 -47 -88 -12 2 7 6 24 9 40 4
15 13 27 22 27 8 0 12 5 9 10 -4 6 -1 9 7 8 7 -2 12 4 10 12 -3 12 -1 13 9 3
10 -10 7 -19 -17 -45z m556 36 c0 -8 -4 -12 -10 -9 -5 3 -10 10 -10 16 0 5 5
9 10 9 6 0 10 -7 10 -16z m-395 -71 c7 -73 4 -79 -42 -89 -31 -6 -52 85 -29
125 l14 25 6 -32 c8 -32 33 -36 33 -4 0 79 11 65 18 -25z m-866 20 c-14 -16
-29 -17 -29 -2 0 5 5 7 10 4 6 -3 10 -1 10 4 0 6 -4 11 -10 11 -5 0 -7 7 -3
16 6 15 7 15 19 -1 10 -14 11 -22 3 -32z m647 3 c-14 -33 -18 -36 -36 -26 -22
12 -26 25 -10 35 6 4 7 11 4 17 -4 6 -3 9 2 6 5 -3 18 -2 29 2 27 10 28 7 11
-34z m-1151 25 c3 -5 1 -12 -4 -15 -13 -8 -42 4 -35 15 7 12 31 12 39 0z
m1660 -1 c3 -5 -1 -10 -10 -10 -9 0 -13 -4 -10 -10 3 -5 2 -10 -4 -10 -5 0
-18 -3 -28 -7 -14 -5 -12 0 7 19 28 29 36 32 45 18z m-1612 -13 c7 -18 -8 -41
-21 -33 -14 9 -11 46 4 46 7 0 14 -6 17 -13z m631 -21 c34 -46 38 -65 19 -97
-18 -31 -37 -40 -26 -13 5 13 1 15 -18 10 -20 -6 -21 -5 -6 4 9 6 17 18 17 26
0 8 -4 13 -9 9 -5 -3 -12 -1 -15 4 -4 5 -2 12 4 16 19 12 10 26 -11 20 -15 -5
-19 -4 -15 4 9 14 -30 9 -45 -6 -6 -6 -17 -9 -24 -7 -7 3 -15 -6 -19 -22 -4
-14 -9 -24 -12 -22 -8 8 16 62 38 85 14 15 32 22 60 21 32 0 43 -6 62 -32z
m-734 -6 c0 -11 -7 -20 -15 -20 -8 0 -15 9 -15 20 0 11 7 20 15 20 8 0 15 -9
15 -20z m45 0 c3 -5 -1 -10 -10 -10 -9 0 -13 5 -10 10 3 6 8 10 10 10 2 0 7
-4 10 -10z m1447 -53 c9 -3 8 -7 -4 -12 -32 -13 -48 2 -48 42 l0 38 19 -31
c11 -18 25 -34 33 -37z m250 48 c0 -5 -5 -11 -11 -13 -6 -2 -11 4 -11 13 0 9
5 15 11 13 6 -2 11 -8 11 -13z m-858 -16 c-4 -8 4 -9 27 -4 25 4 30 3 19 -4
-12 -8 -7 -11 20 -11 56 0 64 -12 26 -42 -38 -31 -94 -48 -154 -48 -51 0 -48
15 5 23 21 4 47 8 58 11 11 2 27 5 35 5 13 1 13 2 0 11 -12 8 -12 10 -1 10 8
0 12 2 9 5 -3 3 -38 -6 -79 -19 -41 -13 -75 -23 -77 -21 -8 7 67 44 103 51 32
6 36 9 20 15 -28 11 -37 11 -30 -1 3 -5 0 -10 -7 -10 -7 0 -24 -3 -37 -7 -17
-4 -22 -3 -17 5 5 8 2 10 -8 6 -9 -4 -16 -1 -16 6 0 8 8 10 23 7 12 -3 31 1
41 9 23 17 50 19 40 3z m450 -21 c9 -37 7 -45 -14 -51 -18 -5 -50 15 -50 30 0
6 43 42 51 43 4 0 9 -10 13 -22z m326 13 c0 -12 -20 -25 -27 -18 -7 7 6 27 18
27 5 0 9 -4 9 -9z m45 -1 c-3 -5 -10 -10 -16 -10 -5 0 -9 5 -9 10 0 6 7 10 16
10 8 0 12 -4 9 -10z m-1782 -24 c9 -22 -9 -39 -32 -31 -23 7 -27 25 -10 42 13
13 35 7 42 -11z m97 3 c0 -5 -7 -9 -15 -9 -15 0 -20 12 -9 23 8 8 24 -1 24
-14z m70 7 c0 -8 -7 -16 -15 -20 -10 -4 -15 1 -15 14 0 11 7 20 15 20 8 0 15
-6 15 -14z m160 -5 c0 -5 8 -7 19 -4 10 3 22 0 25 -6 4 -6 6 -11 4 -11 -57 -7
-93 -17 -136 -36 -63 -28 -68 -29 -54 -11 6 7 34 24 61 37 28 13 48 27 45 32
-3 4 4 8 15 8 12 0 21 -4 21 -9z m1500 -6 c10 -12 9 -16 -5 -21 -19 -8 -40 9
-31 25 10 15 21 14 36 -4z m-50 -20 c0 -3 -9 -5 -20 -5 -11 0 -20 7 -20 15 0
13 4 14 20 5 11 -6 20 -13 20 -15z m-900 11 c0 -3 -4 -8 -10 -11 -5 -3 -10 -1
-10 4 0 6 5 11 10 11 6 0 10 -2 10 -4z m-383 -20 c5 -5 -26 -10 -48 -8 -3 1
-6 -6 -6 -14 0 -7 6 -14 13 -14 6 0 15 -7 18 -16 3 -9 2 -12 -5 -9 -14 9 -59
-3 -59 -15 0 -6 9 -6 25 0 14 5 25 6 26 2 0 -4 2 -15 4 -25 2 -10 -3 -21 -11
-24 -8 -3 -14 -9 -14 -14 0 -6 8 -5 19 1 24 13 31 13 31 0 0 -18 -47 -22 -78
-6 -50 26 -54 86 -9 134 16 18 29 22 55 19 18 -3 36 -8 39 -11z m133 -17 c0
-18 2 -19 15 -9 12 10 15 10 15 -3 0 -16 26 -30 40 -22 10 6 23 -26 14 -34 -4
-3 -9 0 -11 7 -6 16 -23 15 -23 -2 0 -7 10 -20 21 -28 17 -11 20 -19 14 -38
l-8 -24 -17 22 c-25 30 -33 28 -25 -8 6 -27 4 -30 -19 -30 -18 0 -24 4 -20 15
8 20 -13 19 -24 -2 -6 -10 -16 -14 -26 -10 -20 8 -21 37 -1 37 8 0 15 5 15 11
0 7 -10 9 -24 7 -15 -3 -27 0 -30 8 -5 12 10 28 26 29 19 0 19 17 0 22 -12 3
-22 11 -22 18 0 16 27 27 35 15 4 -6 15 -10 26 -10 19 0 19 1 5 16 -18 17 -13
34 10 34 8 0 14 -9 14 -21z m599 0 c11 -19 11 -21 -4 -15 -9 3 -19 6 -21 6 -2
0 -4 7 -4 15 0 21 13 19 29 -6z m-879 1 c0 -5 -11 -11 -25 -11 -37 -2 -43 -3
-50 -10 -3 -4 9 -5 28 -2 37 5 55 -8 34 -25 -15 -13 -147 -23 -147 -11 0 5 -8
6 -17 4 -10 -3 -4 1 12 9 17 8 41 16 55 16 14 1 19 4 11 7 -10 4 -5 10 15 19
35 15 84 18 84 4z m23 -5 c-3 -9 -8 -14 -10 -11 -3 3 -2 9 2 15 9 16 15 13 8
-4z m187 11 c0 -3 -4 -8 -10 -11 -5 -3 -10 -1 -10 4 0 6 5 11 10 11 6 0 10 -2
10 -4z m620 -15 c0 -12 -29 -35 -36 -28 -11 10 5 37 21 37 8 0 15 -4 15 -9z
m-1270 -16 c0 -8 -6 -15 -14 -15 -17 0 -28 14 -19 24 12 12 33 6 33 -9z m1060
-20 c-29 -16 -76 -19 -85 -6 -3 6 14 12 37 14 24 2 50 4 58 5 8 1 4 -5 -10
-13z m243 1 c3 -8 3 -17 0 -20 -7 -7 -33 13 -33 25 0 15 27 10 33 -5z m55 -14
c2 -15 -2 -22 -12 -22 -11 0 -16 9 -16 26 0 31 23 28 28 -4z m245 12 c-3 -12
-43 -18 -43 -6 0 5 3 11 6 14 8 9 39 2 37 -8z m-631 -45 c22 -43 15 -71 -24
-93 -34 -20 -84 -17 -119 7 -20 15 -19 15 13 12 18 -2 45 -6 61 -10 21 -6 27
-4 27 9 0 10 -5 13 -16 9 -14 -5 -15 -3 -5 15 6 11 16 23 23 25 7 3 -3 6 -22
7 l-35 2 35 14 c20 8 27 13 15 13 -37 -2 -45 1 -45 15 0 17 27 25 55 16 10 -4
27 -22 37 -41z m-118 32 c4 -5 -3 -7 -14 -4 -23 6 -26 13 -6 13 8 0 17 -4 20
-9z m-417 -8 c-4 -3 -1 -13 5 -21 24 -28 -39 -55 -72 -31 -13 9 -12 10 3 5 9
-3 17 -1 17 5 0 7 11 9 28 5 15 -3 21 -3 14 0 -6 3 -9 11 -5 17 4 7 0 8 -13 3
-39 -15 -70 -17 -94 -7 -24 11 -24 11 7 8 18 -2 30 0 27 4 -2 4 13 10 33 12
21 2 42 4 47 5 5 1 6 -1 3 -5z m183 -3 c0 -5 -5 -10 -11 -10 -5 0 -7 5 -4 10
3 6 8 10 11 10 2 0 4 -4 4 -10z m643 -4 c7 -18 -1 -26 -25 -26 -18 0 -25 20
-11 33 11 12 31 8 36 -7z m-1130 -2 c10 -10 -4 -34 -20 -34 -8 0 -24 5 -36 12
l-22 12 25 7 c34 9 46 10 53 3z m942 -4 c3 -6 -1 -7 -9 -4 -18 7 -21 14 -7 14
6 0 13 -4 16 -10z m-738 -36 c-6 -6 -77 19 -77 27 0 4 18 0 40 -8 22 -9 39
-18 37 -19z m709 21 c20 -8 33 -19 30 -24 -3 -5 2 -15 12 -22 15 -13 16 -12 3
4 -7 9 -9 17 -3 17 5 0 19 -16 31 -36 12 -19 15 -32 9 -28 -7 4 -4 -3 7 -16
l20 -23 -20 7 c-11 5 -46 17 -77 28 -32 11 -58 21 -58 23 0 18 15 33 28 29 9
-3 6 2 -8 10 -16 10 -20 16 -10 16 10 1 11 3 3 7 -13 5 -18 23 -8 23 3 0 22
-7 41 -15z m274 11 c0 -2 3 -11 6 -19 6 -16 -32 -31 -41 -17 -8 13 6 40 21 40
8 0 14 -2 14 -4z m119 -28 c12 -31 -8 -57 -25 -33 -13 17 -8 55 7 55 6 0 13
-10 18 -22z m-289 -43 c17 -25 29 -45 26 -45 -3 0 -19 20 -36 45 -17 25 -29
45 -26 45 3 0 19 -20 36 -45z m-935 -18 c-5 -18 -4 -19 4 -7 10 13 12 13 20 1
6 -9 6 -22 0 -33 -12 -21 -23 -23 -38 -4 -13 15 -3 79 11 70 5 -3 6 -15 3 -27z
m218 -3 l-28 -26 36 26 c57 41 66 30 13 -16 -26 -24 -62 -58 -81 -77 -18 -19
-36 -31 -40 -28 -3 4 -1 7 5 7 7 0 12 6 12 14 0 8 12 28 26 45 14 17 22 31 17
31 -10 0 49 49 60 50 4 0 -5 -12 -20 -26z m131 -3 c-16 -17 -33 -27 -42 -23
-12 4 -9 11 14 29 42 33 61 29 28 -6z m696 9 c13 -8 13 -10 -2 -10 -9 0 -20 5
-23 10 -8 13 5 13 25 0z m-760 -16 c0 -9 -14 -28 -32 -42 -81 -69 -117 -105
-112 -113 5 -9 94 46 94 57 0 3 -13 -4 -29 -15 -46 -33 -50 -24 -6 15 60 53
72 58 79 32 3 -15 -2 -31 -17 -48 l-22 -25 26 23 c15 13 30 19 33 14 3 -5 -1
-15 -9 -22 -8 -7 -13 -16 -10 -20 8 -13 -50 -50 -87 -55 -28 -4 -29 -4 -8 3
34 12 90 41 90 47 0 3 -18 -4 -40 -15 -51 -26 -75 -26 -32 0 53 32 36 30 -25
-3 -32 -17 -52 -24 -46 -15 16 18 5 32 -14 17 -10 -9 -13 -8 -13 1 0 12 163
180 174 180 4 0 6 -7 6 -16z m599 -26 c86 -29 92 -33 66 -40 -16 -4 -41 -5
-55 -1 -51 12 -120 46 -120 59 0 19 2 19 109 -18z m-523 -13 c-17 -41 -15 -43
13 -13 l21 21 -9 -29 c-6 -20 -4 -33 5 -41 10 -10 14 -9 19 7 4 11 11 18 16
15 5 -4 9 0 9 7 1 7 7 27 15 43 10 19 13 22 9 8 -3 -13 -6 -36 -6 -53 -1 -22
-7 -31 -27 -38 -34 -11 -91 4 -113 30 -21 24 -24 63 -5 55 7 -3 24 1 38 9 13
7 25 13 27 14 1 0 -4 -16 -12 -35z m715 24 c16 -8 18 -13 9 -24 -9 -11 -16
-12 -31 -2 -43 27 -23 51 22 26z m-436 -69 c-16 -73 -165 -89 -165 -18 0 21
32 38 38 20 2 -7 10 -12 17 -12 7 0 15 -6 18 -12 2 -7 2 -1 0 15 -3 15 0 27 6
27 10 0 15 -14 12 -33 -1 -5 3 -6 9 -2 7 4 7 12 0 25 -13 25 -14 51 0 30 8
-12 10 -12 16 3 3 9 10 14 15 11 5 -3 9 1 9 8 0 7 7 2 16 -10 10 -15 13 -32 9
-52z m246 10 c11 0 19 -4 19 -9 0 -5 -27 -9 -59 -8 -33 1 -54 6 -47 10 7 5 4
7 -9 6 -28 -2 -38 0 -54 10 -11 7 -10 12 5 27 18 19 20 18 73 -8 29 -16 62
-28 72 -28z m-983 -8 c32 -48 37 -76 21 -122 -8 -23 -8 -22 -4 6 3 24 -2 37
-21 55 l-25 23 16 -37 c9 -21 11 -37 5 -37 -5 0 -10 5 -10 11 0 5 -5 7 -11 4
-6 -4 -17 1 -25 11 -15 18 -15 18 -9 -1 4 -11 9 -26 13 -34 4 -10 -2 -9 -21 4
-15 9 -27 21 -27 25 0 4 -6 10 -14 13 -21 8 -13 -20 10 -38 10 -8 15 -15 10
-15 -5 0 1 -12 15 -26 23 -26 23 -26 2 -15 -12 6 -27 19 -32 29 -9 14 -10 14
-11 2 0 -9 4 -20 9 -25 5 -6 11 -21 13 -35 1 -14 10 -28 18 -32 12 -5 10 -7
-5 -8 -19 0 -19 -1 3 -18 21 -16 22 -20 9 -57 -7 -21 -16 -34 -19 -29 -5 8
-16 63 -23 114 -2 8 -12 46 -24 83 -21 64 -22 89 -5 150 3 10 15 17 28 17 13
0 29 7 36 15 22 26 44 17 78 -33z m-151 16 c-3 -8 -6 -5 -6 6 -1 11 2 17 5 13
3 -3 4 -12 1 -19z m953 -79 c0 -40 -3 -49 -17 -49 -11 0 -14 3 -7 8 7 4 8 15
3 27 l-8 20 0 -20 c-1 -17 -3 -17 -11 -5 -12 19 -13 60 -1 60 5 0 11 -6 14
-12 5 -16 1 8 -8 42 l-7 25 21 -24 c15 -17 21 -37 21 -72z m-303 59 c-3 -8 -6
-5 -6 6 -1 11 2 17 5 13 3 -3 4 -12 1 -19z m-313 -47 c4 -5 2 -20 -2 -33 -5
-12 -12 -34 -15 -48 -6 -23 -4 -25 32 -25 22 0 37 3 35 6 -2 4 12 9 31 11 39
4 47 -12 17 -34 -11 -7 -23 -26 -29 -43 -8 -26 -15 -31 -55 -35 -24 -3 -55 -2
-69 1 -20 6 -17 7 16 9 29 2 33 4 15 7 l-25 5 30 14 30 13 -45 -3 c-25 -2 -35
-1 -22 1 28 5 29 23 1 23 -21 0 -21 0 2 20 l24 20 -28 -4 c-15 -3 -25 -1 -22
4 3 4 -1 11 -7 14 -7 3 -4 4 8 1 12 -3 27 1 34 10 10 12 9 15 -6 16 -17 0 -16
1 2 9 12 5 25 15 29 22 6 10 5 11 -6 1 -7 -7 -20 -13 -29 -13 -8 0 -32 -14
-53 -31 -36 -30 -51 -32 -22 -3 8 8 18 22 23 30 5 8 26 21 48 29 47 17 51 17
58 6z m399 -22 c15 -17 27 -37 27 -45 0 -7 -27 -41 -60 -75 -33 -34 -60 -65
-60 -71 0 -5 -4 -7 -9 -4 -5 4 -12 0 -14 -6 -3 -7 -6 4 -6 25 -1 25 -5 36 -12
31 -7 -4 -10 5 -8 27 1 19 -4 47 -10 64 -9 21 -9 36 -2 53 13 28 34 19 26 -11
-4 -17 -2 -15 10 6 18 32 52 40 35 8 -5 -11 -10 -23 -10 -28 1 -4 8 5 16 20 8
15 19 25 24 22 6 -4 10 -1 10 4 0 19 15 12 43 -20z m166 -7 c13 -31 13 -142 0
-142 -11 0 -48 55 -61 90 -5 17 -12 29 -14 27 -3 -2 0 -17 6 -33 l10 -29 -25
30 c-31 37 -33 59 -5 52 11 -3 23 -1 26 4 10 16 22 10 27 -13 3 -17 5 -14 6
10 1 40 15 41 30 4z m-502 -48 c-3 -3 -12 -4 -19 -1 -8 3 -5 6 6 6 11 1 17 -2
13 -5z m543 2 c0 -3 -4 -8 -10 -11 -5 -3 -10 -1 -10 4 0 6 5 11 10 11 6 0 10
-2 10 -4z m-850 -72 c0 -2 -7 -4 -15 -4 -8 0 -15 4 -15 10 0 5 7 7 15 4 8 -4
15 -8 15 -10z m60 -24 c0 -5 -2 -10 -4 -10 -3 0 -8 5 -11 10 -3 6 -1 10 4 10
6 0 11 -4 11 -10z m20 -10 c-6 -11 -15 -20 -20 -20 -6 0 -2 9 7 20 10 11 19
20 21 20 1 0 -2 -9 -8 -20z m360 -41 c-14 -26 -40 -13 -40 20 0 39 12 46 32
21 13 -16 15 -27 8 -41z m-235 -41 c25 -54 23 -68 -12 -71 -17 -1 -19 -4 -9
-19 6 -10 14 -18 19 -18 15 0 -59 -69 -84 -78 -38 -14 -89 4 -89 31 0 16 -3
18 -9 8 -7 -11 -11 -8 -17 10 -4 13 -9 29 -10 34 -1 6 -5 18 -9 28 -4 10 -3
17 4 17 6 0 11 9 11 20 0 22 1 23 24 14 9 -3 16 -16 16 -28 0 -11 5 -28 11
-36 8 -11 9 -8 5 15 -3 17 -2 37 4 45 11 17 12 14 14 -45 1 -20 7 -31 20 -33
11 -3 16 0 11 7 -3 6 -11 9 -16 6 -5 -4 -9 2 -9 12 0 12 7 19 20 19 11 0 20
-3 21 -6 0 -3 2 -25 4 -49 2 -24 7 -46 11 -50 4 -3 4 14 1 39 -6 45 -6 45 13
23 22 -28 34 -30 20 -4 -5 11 -11 35 -11 53 l-1 33 -8 -30 c-7 -27 -8 -26 -7
13 2 28 6 41 14 38 18 -7 25 11 13 34 -8 14 -8 20 0 20 6 0 22 -24 35 -52z
m-75 -32 c0 -26 -6 -18 -14 19 -5 22 -4 26 4 15 5 -8 10 -24 10 -34z m239 -9
c14 -17 5 -27 -24 -27 -24 0 -49 22 -38 33 11 12 50 8 62 -6z"/>
<path d="M2985 2030 c-14 -22 -25 -43 -25 -46 0 -9 34 35 49 64 19 37 3 25
-24 -18z"/>
<path d="M3013 2025 c-20 -30 -21 -34 -5 -32 11 0 18 9 18 21 -1 12 4 21 11
21 6 0 15 4 20 9 4 5 3 6 -4 3 -6 -4 -13 -3 -15 3 -1 5 -13 -6 -25 -25z"/>
<path d="M3046 1995 c-13 -25 -21 -43 -15 -40 10 7 52 85 45 85 -2 0 -16 -20
-30 -45z"/>
<path d="M3086 2003 c-6 -14 -5 -15 5 -6 7 7 10 15 7 18 -3 3 -9 -2 -12 -12z"/>
<path d="M3100 1975 c-7 -9 -8 -15 -2 -15 5 0 12 7 16 15 3 8 4 15 2 15 -2 0
-9 -7 -16 -15z"/>
<path d="M2983 1964 c-9 -9 -9 -15 -2 -19 7 -5 4 -15 -8 -28 l-18 -22 22 19
c13 10 20 23 16 28 -3 6 0 14 7 18 7 4 8 10 4 13 -5 3 -15 -1 -21 -9z"/>
<path d="M3113 1942 c-11 -15 -18 -37 -17 -49 3 -20 -26 -50 -38 -38 -2 2 -4
-5 -4 -15 0 -19 1 -19 19 1 10 11 23 16 29 13 7 -4 8 -2 4 4 -7 11 7 17 29 12
5 -1 6 2 2 7 -5 4 -14 8 -20 8 -19 0 -15 28 7 52 10 13 17 25 14 28 -2 3 -14
-8 -25 -23z"/>
<path d="M3066 1918 l-16 -33 20 24 c11 13 20 27 20 32 0 17 -9 9 -24 -23z"/>
<path d="M3147 1916 c-10 -8 -14 -16 -10 -19 5 -3 14 3 21 14 14 22 13 23 -11
5z"/>
<path d="M3020 1900 c-6 -11 -8 -20 -6 -20 3 0 10 9 16 20 6 11 8 20 6 20 -3
0 -10 -9 -16 -20z"/>
<path d="M3035 1869 c-4 -6 -5 -12 -2 -15 2 -3 7 2 10 11 7 17 1 20 -8 4z"/>
<path d="M2923 1838 c-22 -37 -25 -47 -18 -50 3 -2 15 16 25 40 23 50 19 55
-7 10z"/>
<path d="M3133 1827 c3 -9 0 -18 -9 -21 -9 -3 -12 -11 -9 -16 5 -8 11 -7 21 1
17 14 18 35 2 45 -7 5 -9 2 -5 -9z"/>
<path d="M3016 1818 c3 -5 10 -6 15 -3 13 9 11 12 -6 12 -8 0 -12 -4 -9 -9z"/>
<path d="M3086 1798 c-12 -16 -16 -18 -12 -5 7 23 -1 22 -14 -2 -14 -28 19
-21 38 7 19 29 9 28 -12 0z"/>
<path d="M2993 1785 c0 -8 4 -12 9 -9 5 3 6 10 3 15 -9 13 -12 11 -12 -6z"/>
<path d="M3002 1745 c-12 -19 -20 -35 -17 -35 7 0 47 61 42 66 -2 3 -14 -11
-25 -31z"/>
<path d="M3016 1716 c-23 -36 -20 -44 5 -12 12 15 19 29 16 32 -2 2 -12 -7
-21 -20z"/>
<path d="M3511 1889 c0 -8 4 -23 9 -34 8 -17 9 -16 7 7 -3 28 -18 53 -16 27z"/>
<path d="M3527 1810 c3 -11 7 -20 9 -20 2 0 4 9 4 20 0 11 -4 20 -9 20 -5 0
-7 -9 -4 -20z"/>
<path d="M3531 1764 c0 -11 3 -14 6 -6 3 7 2 16 -1 19 -3 4 -6 -2 -5 -13z"/>
<path d="M3461 1744 c0 -11 3 -14 6 -6 3 7 2 16 -1 19 -3 4 -6 -2 -5 -13z"/>
<path d="M3803 1823 c9 -2 23 -2 30 0 6 3 -1 5 -18 5 -16 0 -22 -2 -12 -5z"/>
<path d="M3733 1813 c9 -2 23 -2 30 0 6 3 -1 5 -18 5 -16 0 -22 -2 -12 -5z"/>
<path d="M3688 1803 c7 -3 16 -2 19 1 4 3 -2 6 -13 5 -11 0 -14 -3 -6 -6z"/>
<path d="M3640 1790 c-8 -5 -12 -11 -10 -14 3 -2 14 2 24 10 22 15 10 19 -14
4z"/>
<path d="M3785 1719 c-52 -40 -57 -46 -17 -23 29 16 73 55 61 53 -2 0 -22 -14
-44 -30z"/>
<path d="M3739 1653 c-13 -16 -12 -17 4 -4 16 13 21 21 13 21 -2 0 -10 -8 -17
-17z"/>
<path d="M2365 1729 c-4 -6 -5 -12 -2 -15 2 -3 7 2 10 11 7 17 1 20 -8 4z"/>
<path d="M2383 1716 l-21 -23 25 0 c17 0 21 2 12 7 -10 7 -10 11 0 24 21 26 7
18 -16 -8z"/>
<path d="M2510 1705 c-12 -13 -26 -23 -29 -20 -4 2 -8 -6 -8 -18 -2 -20 -1
-20 8 -4 6 9 14 15 20 12 5 -4 -3 -27 -18 -53 -31 -54 -26 -53 12 2 18 27 23
42 16 49 -8 8 -4 18 11 34 12 13 19 23 16 23 -2 0 -15 -11 -28 -25z"/>
<path d="M2556 1718 c3 -4 9 -8 15 -8 5 0 9 4 9 8 0 5 -7 9 -15 9 -8 0 -12 -4
-9 -9z"/>
<path d="M2435 1700 c-3 -5 -1 -10 4 -10 6 0 11 5 11 10 0 6 -2 10 -4 10 -3 0
-8 -4 -11 -10z"/>
<path d="M2545 1673 c-10 -16 -12 -23 -5 -16 9 8 19 9 31 2 15 -7 17 -6 13 6
-3 8 -11 12 -17 8 -6 -4 -8 0 -4 10 10 25 1 20 -18 -10z"/>
<path d="M2350 1676 c0 -2 7 -7 16 -10 8 -3 12 -2 9 4 -6 10 -25 14 -25 6z"/>
<path d="M2655 1650 c-10 -11 -13 -20 -7 -20 6 0 16 9 22 20 6 11 9 20 7 20
-2 0 -12 -9 -22 -20z"/>
<path d="M2393 1645 c0 -8 4 -15 9 -15 4 0 8 4 8 9 0 6 -4 12 -8 15 -5 3 -9
-1 -9 -9z"/>
<path d="M2680 1638 c-8 -13 -15 -27 -16 -33 0 -5 -2 -14 -2 -19 -1 -5 -10 -2
-19 5 -17 13 -17 13 0 -7 27 -32 20 -40 -10 -13 -20 17 -23 18 -10 3 9 -11 14
-23 11 -27 -3 -3 2 -4 13 -3 10 2 17 11 17 20 -1 9 2 16 6 16 5 0 11 14 15 30
4 17 11 28 16 25 5 -4 6 1 3 9 -8 20 -6 20 -24 -6z"/>
<path d="M2335 1631 c-3 -5 -2 -12 3 -15 5 -3 9 1 9 9 0 17 -3 19 -12 6z"/>
<path d="M2513 1628 c-15 -20 -25 -38 -20 -38 3 0 12 11 21 25 17 26 16 35 -1
13z"/>
<path d="M2374 1612 c0 -10 6 -19 13 -19 8 0 9 6 2 19 -5 10 -11 18 -12 18 -2
0 -3 -8 -3 -18z"/>
<path d="M2627 1619 c7 -7 15 -10 18 -7 3 3 -2 9 -12 12 -14 6 -15 5 -6 -5z"/>
<path d="M2709 1613 c-13 -16 -12 -17 4 -4 9 7 17 15 17 17 0 8 -8 3 -21 -13z"/>
<path d="M2720 1595 c-7 -8 -16 -12 -21 -9 -5 3 -6 -2 -3 -10 3 -9 10 -13 15
-10 15 9 10 -13 -5 -25 -11 -9 -15 -9 -18 1 -3 8 -6 7 -10 -4 -4 -10 -2 -15 7
-14 20 3 46 28 42 40 -3 6 0 19 5 29 11 21 5 22 -12 2z"/>
<path d="M2395 1564 c-9 -15 -12 -23 -6 -20 11 7 35 46 28 46 -3 0 -12 -12
-22 -26z"/>
<path d="M2532 1565 c-6 -14 -10 -25 -8 -25 2 0 11 11 20 25 9 14 13 25 8 25
-5 0 -14 -11 -20 -25z"/>
<path d="M2438 1563 c-23 -6 -52 -50 -33 -50 8 0 14 3 13 6 -2 20 4 31 16 31
8 0 18 5 21 10 3 6 5 9 3 9 -2 -1 -11 -3 -20 -6z"/>
<path d="M2601 1533 c-10 -26 -10 -27 4 -9 8 11 15 23 15 28 0 15 -7 8 -19
-19z"/>
<path d="M2352 1538 c-7 -7 -12 -15 -12 -19 0 -9 27 -5 37 6 5 4 2 5 -6 0 -11
-6 -13 -4 -8 8 8 20 5 21 -11 5z"/>
<path d="M2440 1520 c-12 -16 -19 -30 -16 -30 2 0 14 14 26 30 12 17 19 30 16
30 -2 0 -14 -13 -26 -30z"/>
<path d="M2733 1530 c-3 -11 -9 -18 -13 -15 -5 3 -12 0 -16 -6 -4 -8 -3 -9 4
-5 7 4 12 1 12 -8 0 -10 -6 -13 -15 -10 -8 4 -15 1 -15 -6 0 -6 5 -8 10 -5 6
3 10 0 10 -7 0 -8 5 -6 11 5 14 24 29 77 22 77 -3 0 -7 -9 -10 -20z"/>
<path d="M2503 1518 c-15 -20 -25 -38 -20 -38 3 0 12 11 21 25 17 26 16 35 -1
13z"/>
<path d="M2628 1512 c4 -11 1 -13 -8 -7 -9 5 -11 4 -6 -4 6 -9 11 -9 22 0 18
15 18 26 0 26 -8 0 -12 -6 -8 -15z"/>
<path d="M2653 1497 c-3 -6 -1 -7 5 -3 5 3 12 1 14 -6 3 -8 6 -7 10 3 7 17
-19 22 -29 6z"/>
<path d="M3290 1700 c-13 -8 -12 -10 3 -10 9 0 17 5 17 10 0 12 -1 12 -20 0z"/>
<path d="M3218 1603 c6 -2 18 -2 25 0 6 3 1 5 -13 5 -14 0 -19 -2 -12 -5z"/>
<path d="M3268 1603 c7 -3 16 -2 19 1 4 3 -2 6 -13 5 -11 0 -14 -3 -6 -6z"/>
<path d="M3450 1526 c0 -30 -11 -65 -34 -112 -19 -38 -34 -70 -32 -71 8 -8 69
124 76 165 l8 47 0 -40 c1 -22 -5 -58 -13 -80 -16 -44 -11 -63 5 -21 16 42 23
102 16 131 -10 40 -26 29 -26 -19z"/>
<path d="M3730 1430 c6 -11 13 -20 16 -20 2 0 0 9 -6 20 -6 11 -13 20 -16 20
-2 0 0 -9 6 -20z"/>
<path d="M2191 1298 c3 -29 4 -57 1 -63 -3 -7 -1 -7 6 0 11 11 4 115 -7 115
-4 0 -4 -24 0 -52z"/>
<path d="M2216 1317 c3 -10 9 -15 12 -12 3 3 0 11 -7 18 -10 9 -11 8 -5 -6z"/>
<path d="M2251 1294 c0 -11 3 -14 6 -6 3 7 2 16 -1 19 -3 4 -6 -2 -5 -13z"/>
<path d="M2262 1250 c0 -14 2 -19 5 -12 2 6 2 18 0 25 -3 6 -5 1 -5 -13z"/>
<path d="M1940 1201 c0 -6 4 -13 10 -16 6 -3 7 1 4 9 -7 18 -14 21 -14 7z"/>
<path d="M1931 1159 c-1 -9 7 -25 17 -36 9 -10 14 -14 10 -8 -4 6 -12 22 -17
36 -6 15 -10 18 -10 8z"/>
<path d="M1960 1161 c0 -6 4 -13 10 -16 6 -3 7 1 4 9 -7 18 -14 21 -14 7z"/>
<path d="M1980 1126 c0 -2 8 -10 18 -17 15 -13 16 -12 3 4 -13 16 -21 21 -21
13z"/>
<path d="M2410 1049 c0 -5 5 -7 10 -4 6 3 10 8 10 11 0 2 -4 4 -10 4 -5 0 -10
-5 -10 -11z"/>
<path d="M2632 1035 c-16 -19 -3 -19 22 0 14 11 16 15 5 15 -8 -1 -20 -7 -27
-15z"/>
<path d="M2023 915 c-7 -20 0 -27 20 -19 9 3 13 12 10 20 -7 19 -22 18 -30 -1z"/>
<path d="M2195 940 c-17 -18 -17 -21 -1 -45 21 -32 41 -32 61 -1 32 49 -21 89
-60 46z"/>
<path d="M1875 960 l-40 -7 35 -1 c19 0 44 3 55 8 24 10 7 10 -50 0z"/>
<path d="M2548 883 c7 -3 16 -2 19 1 4 3 -2 6 -13 5 -11 0 -14 -3 -6 -6z"/>
<path d="M2580 846 c0 -3 9 -10 20 -16 11 -6 20 -8 20 -6 0 3 -9 10 -20 16
-11 6 -20 8 -20 6z"/>
<path d="M2314 759 c-3 -6 1 -18 10 -27 15 -15 16 -15 16 1 0 9 -5 17 -11 17
-5 0 -7 5 -4 10 3 6 4 10 1 10 -3 0 -8 -5 -12 -11z"/>
<path d="M2470 761 c0 -5 7 -12 16 -15 14 -5 15 -4 4 9 -14 17 -20 19 -20 6z"/>
<path d="M1550 735 c0 -8 4 -15 10 -15 5 0 7 7 4 15 -4 8 -8 15 -10 15 -2 0
-4 -7 -4 -15z"/>
<path d="M1580 736 c0 -8 4 -17 9 -20 5 -4 7 3 4 14 -6 23 -13 26 -13 6z"/>
<path d="M1495 720 c-3 -5 -2 -10 4 -10 6 0 8 -8 5 -17 -5 -14 -4 -15 4 -4 6
8 8 20 5 28 -6 16 -10 16 -18 3z"/>
<path d="M1530 711 c0 -6 4 -13 10 -16 6 -3 7 1 4 9 -7 18 -14 21 -14 7z"/>
<path d="M1830 540 c8 -5 24 -10 34 -10 26 0 18 6 -19 14 -22 5 -26 4 -15 -4z"/>
<path d="M2166 593 c-10 -32 -20 -65 -22 -73 -5 -13 -4 -13 5 0 13 18 44 121
38 126 -2 3 -12 -21 -21 -53z"/>
<path d="M2196 604 c-9 -26 -14 -49 -12 -51 2 -2 11 17 20 43 9 26 14 49 12
51 -2 2 -11 -17 -20 -43z"/>
<path d="M2071 604 c0 -11 3 -14 6 -6 3 7 2 16 -1 19 -3 4 -6 -2 -5 -13z"/>
<path d="M2102 587 c-7 -19 -12 -40 -12 -48 1 -8 8 6 16 29 9 24 14 46 12 48
-2 2 -10 -11 -16 -29z"/>
<path d="M2111 514 c0 -11 3 -14 6 -6 3 7 2 16 -1 19 -3 4 -6 -2 -5 -13z"/>
<path d="M2347 589 c4 -13 8 -18 11 -10 2 7 -1 18 -6 23 -8 8 -9 4 -5 -13z"/>
<path d="M1742 380 c0 -14 2 -19 5 -12 2 6 2 18 0 25 -3 6 -5 1 -5 -13z"/>
<path d="M1653 266 c0 -11 1 -15 4 -8 4 10 8 8 19 -5 12 -17 13 -16 8 4 -8 29
-30 36 -31 9z"/>
<path d="M2849 2183 c-13 -16 -12 -17 4 -4 9 7 17 15 17 17 0 8 -8 3 -21 -13z"/>
<path d="M2760 2165 c-13 -14 -20 -25 -17 -25 10 0 49 41 45 46 -3 2 -15 -7
-28 -21z"/>
</g>
</svg>
